<svg width="535" height="702" viewBox="0 0 535 702" fill="none" xmlns="http://www.w3.org/2000/svg">
<mask id="mask0_306_794" style="mask-type:luminance" maskUnits="userSpaceOnUse" x="421" y="587" width="114" height="115">
<path d="M437.814 684.347C415.585 662.119 415.585 626.078 437.814 603.847C460.045 581.616 496.086 581.616 518.317 603.847C540.545 626.078 540.545 662.119 518.317 684.347C496.086 706.578 460.045 706.578 437.814 684.347Z" fill="white"/>
</mask>
<g mask="url(#mask0_306_794)">
<path d="M437.814 684.347C415.585 662.119 415.585 626.078 437.814 603.847C460.045 581.616 496.086 581.616 518.317 603.847C540.545 626.078 540.545 662.119 518.317 684.347C496.086 706.578 460.045 706.578 437.814 684.347Z" fill="#FBCC31"/>
</g>
<mask id="mask1_306_794" style="mask-type:luminance" maskUnits="userSpaceOnUse" x="2" y="174" width="63" height="62">
<path d="M11.7471 226.92C-0.358395 214.814 -0.358395 195.187 11.7471 183.08C23.8538 170.973 43.4815 170.973 55.5883 183.08C67.6937 195.187 67.6937 214.814 55.5883 226.92C43.4815 239.027 23.8538 239.027 11.7471 226.92Z" fill="white"/>
</mask>
<g mask="url(#mask1_306_794)">
<path d="M11.7471 226.92C-0.358395 214.814 -0.358395 195.187 11.7471 183.08C23.8538 170.973 43.4815 170.973 55.5883 183.08C67.6937 195.187 67.6937 214.814 55.5883 226.92C43.4815 239.027 23.8538 239.027 11.7471 226.92Z" fill="#FBCC31"/>
</g>
<mask id="mask2_306_794" style="mask-type:luminance" maskUnits="userSpaceOnUse" x="383" y="32" width="48" height="47">
<path d="M383.668 55.3228C383.668 42.4421 394.11 32.0001 406.991 32.0001C419.871 32.0001 430.313 42.4421 430.313 55.3228C430.313 68.2035 419.871 78.6455 406.991 78.6455C394.11 78.6455 383.668 68.2035 383.668 55.3228Z" fill="white"/>
</mask>
<g mask="url(#mask2_306_794)">
<path d="M383.668 55.3228C383.668 42.4421 394.11 32.0001 406.991 32.0001C419.871 32.0001 430.313 42.4421 430.313 55.3228C430.313 68.2035 419.871 78.6455 406.991 78.6455C394.11 78.6455 383.668 68.2035 383.668 55.3228Z" fill="#F0E0C4"/>
</g>
<mask id="mask3_306_794" style="mask-type:luminance" maskUnits="userSpaceOnUse" x="390" y="131" width="34" height="20">
<path d="M406.988 150.089C400.268 150.089 394.002 147.638 391.743 143.76C388.913 138.899 393.443 133.634 401.864 132C403.562 131.67 405.292 131.514 406.99 131.514C413.707 131.514 419.974 133.962 422.233 137.843C425.062 142.703 420.532 147.969 412.112 149.603C410.413 149.933 408.686 150.089 406.988 150.089Z" fill="white"/>
</mask>
<g mask="url(#mask3_306_794)">
<path d="M406.988 150.089C400.268 150.089 394.002 147.638 391.743 143.76C388.913 138.899 393.443 133.634 401.864 132C403.562 131.67 405.292 131.514 406.99 131.514C413.707 131.514 419.974 133.962 422.233 137.843C425.062 142.703 420.532 147.969 412.112 149.603C410.413 149.933 408.686 150.089 406.988 150.089Z" fill="#1E1E23" fill-opacity="0.15"/>
</g>
<mask id="mask4_306_794" style="mask-type:luminance" maskUnits="userSpaceOnUse" x="178" y="63" width="13" height="12">
<path d="M184.642 74.9463C181.344 74.9463 178.668 72.2705 178.668 68.9719C178.668 65.6733 181.344 62.9998 184.642 62.9998C187.941 62.9998 190.614 65.6733 190.614 68.9719C190.614 72.2705 187.941 74.9463 184.642 74.9463Z" fill="white"/>
</mask>
<g mask="url(#mask4_306_794)">
<path d="M184.642 74.9463C181.344 74.9463 178.668 72.2705 178.668 68.9719C178.668 65.6733 181.344 62.9998 184.642 62.9998C187.941 62.9998 190.614 65.6733 190.614 68.9719C190.614 72.2705 187.941 74.9463 184.642 74.9463Z" fill="#509AD1"/>
</g>
<mask id="mask5_306_794" style="mask-type:luminance" maskUnits="userSpaceOnUse" x="196" y="0" width="15" height="15">
<path d="M203.645 14.397C199.668 14.397 196.446 11.1726 196.446 7.19848C196.446 3.22193 199.668 -4.06432e-05 203.645 -4.06432e-05C207.621 -4.06432e-05 210.843 3.22193 210.843 7.19848C210.843 11.1726 207.621 14.397 203.645 14.397Z" fill="white"/>
</mask>
<g mask="url(#mask5_306_794)">
<path d="M203.645 14.397C199.668 14.397 196.446 11.1726 196.446 7.19848C196.446 3.22193 199.668 -4.06432e-05 203.645 -4.06432e-05C207.621 -4.06432e-05 210.843 3.22193 210.843 7.19848C210.843 11.1726 207.621 14.397 203.645 14.397Z" fill="#FBCC31"/>
</g>
<mask id="mask6_306_794" style="mask-type:luminance" maskUnits="userSpaceOnUse" x="233" y="95" width="9" height="8">
<path d="M237.496 102.658C235.381 102.658 233.668 100.945 233.668 98.8302C233.668 96.7149 235.381 94.9998 237.496 94.9998C239.611 94.9998 241.326 96.7149 241.326 98.8302C241.326 100.945 239.611 102.658 237.496 102.658Z" fill="white"/>
</mask>
<g mask="url(#mask6_306_794)">
<path d="M237.496 102.658C235.381 102.658 233.668 100.945 233.668 98.8302C233.668 96.7149 235.381 94.9998 237.496 94.9998C239.611 94.9998 241.326 96.7149 241.326 98.8302C241.326 100.945 239.611 102.658 237.496 102.658Z" fill="url(#paint0_radial_306_794)"/>
</g>
<path d="M347.007 606.025L345.716 601.414L355.969 598.547L353.101 588.291L357.715 587L361.874 601.869L347.007 606.025Z" fill="#F0E0C4"/>
<path d="M337.959 622.1L336.668 617.488L346.921 614.621L344.056 604.366L348.667 603.074L352.826 617.943L337.959 622.1Z" fill="#F0E0C4"/>
<path d="M347.565 616.929L343.409 602.06L358.276 597.904L359.567 602.517L349.314 605.382L352.179 615.637L347.565 616.929Z" fill="#F0E0C4"/>
<path d="M412.073 241.791C408.425 241.791 405.459 244.757 405.459 248.403C405.459 252.048 408.425 255.014 412.073 255.014C415.717 255.014 418.685 252.048 418.685 248.403C418.685 244.757 415.717 241.791 412.073 241.791ZM412.073 259.805C405.785 259.805 400.668 254.691 400.668 248.403C400.668 242.114 405.785 237 412.073 237C418.361 237 423.476 242.114 423.476 248.403C423.476 254.691 418.361 259.805 412.073 259.805Z" fill="#8AD9EC"/>
<path d="M20.6944 626.331L26.8605 632.497L33.0265 626.331L26.8605 620.165L20.6944 626.331ZM26.8605 639.271L13.9199 626.331L26.8605 613.39L39.801 626.331L26.8605 639.271Z" fill="#8AD9EC"/>
<path d="M188.597 638.723L8.6392 534.822C-4.15762 527.434 -2.55264 514.532 12.2229 506.002L185.009 406.243C199.782 397.713 222.132 396.788 234.926 404.173L414.887 508.074C427.683 515.462 426.079 528.366 411.303 536.897L238.52 636.653C223.744 645.183 201.394 646.11 188.597 638.723Z" fill="#181B39" fill-opacity="0.15"/>
<path d="M343.797 497.103C343.797 508.772 334.337 518.229 322.671 518.229C311.003 518.229 301.543 508.772 301.543 497.103C301.543 485.434 311.003 475.975 322.671 475.975C334.337 475.975 343.797 485.434 343.797 497.103Z" fill="#89D8EB"/>
<path d="M377.619 499.197C377.619 505.116 372.821 509.914 366.902 509.914C360.985 509.914 356.187 505.116 356.187 499.197C356.187 493.28 360.985 488.481 366.902 488.481C372.821 488.481 377.619 493.28 377.619 499.197Z" fill="#89D8EB"/>
<path d="M367.171 473.916C367.171 476.264 365.264 478.171 362.917 478.171C360.567 478.171 358.662 476.264 358.662 473.916C358.662 471.566 360.567 469.662 362.917 469.662C365.264 469.662 367.171 471.566 367.171 473.916Z" fill="#89D8EB"/>
<mask id="mask7_306_794" style="mask-type:luminance" maskUnits="userSpaceOnUse" x="39" y="282" width="346" height="311">
<path d="M210.527 592.632C203.913 592.632 197.598 591.298 192.879 588.571L48.5664 505.253L46.4009 504.003C41.3967 501.114 39.1281 497.188 39.4252 493.118H39.4012V490.31V470.856V468.092V432.648V429.886V284.382C39.521 285.844 39.9833 287.271 40.793 288.622C41.95 290.546 43.8137 292.316 46.4009 293.811L119.641 336.097L192.879 378.38C193.162 378.543 193.449 378.701 193.742 378.854C198.353 381.259 204.308 382.44 210.527 382.44C218.267 382.44 226.414 380.612 232.896 377.043C233.105 376.93 233.308 376.813 233.512 376.696L374.152 295.498C374.339 295.39 374.526 295.279 374.708 295.169C380.599 291.617 383.763 287.192 384.075 282.926H384.101V429.871V432.636V468.077V470.842V490.296V493.118H384.046C383.739 497.334 380.673 501.701 374.924 505.232C374.672 505.385 374.413 505.538 374.152 505.689L233.512 586.887C226.934 590.687 218.514 592.632 210.527 592.632ZM357.702 337.912C356.905 337.912 356.052 338.162 355.187 338.66L238.938 405.78C235.723 407.634 233.107 412.607 233.107 416.859V549.125C233.107 551.494 233.919 553.324 235.335 554.141C235.867 554.447 236.454 554.601 237.076 554.601C237.876 554.601 238.729 554.349 239.594 553.851L355.843 486.734C359.058 484.877 361.672 479.906 361.672 475.652V343.386C361.672 341.017 360.857 339.187 359.444 338.37C358.912 338.066 358.325 337.912 357.702 337.912ZM237.084 553.293C236.686 553.293 236.319 553.199 235.991 553.01C234.99 552.43 234.413 551.015 234.413 549.125V416.859C234.413 413.021 236.736 408.558 239.594 406.913L355.843 339.793C356.505 339.41 357.13 339.218 357.695 339.218C358.093 339.218 358.459 339.314 358.787 339.503C359.789 340.08 360.366 341.496 360.366 343.386V475.652C360.366 479.489 358.042 483.955 355.187 485.6L238.938 552.72C238.274 553.101 237.649 553.293 237.084 553.293Z" fill="white"/>
</mask>
<g mask="url(#mask7_306_794)">
<path d="M210.527 592.632C203.913 592.632 197.598 591.298 192.879 588.571L48.5664 505.253L46.4009 504.003C41.3967 501.114 39.1281 497.188 39.4252 493.118H39.4012V490.31V470.856V468.092V432.648V429.886V284.382C39.521 285.844 39.9833 287.271 40.793 288.622C41.95 290.546 43.8137 292.316 46.4009 293.811L119.641 336.097L192.879 378.38C193.162 378.543 193.449 378.701 193.742 378.854C198.353 381.259 204.308 382.44 210.527 382.44C218.267 382.44 226.414 380.612 232.896 377.043C233.105 376.93 233.308 376.813 233.512 376.696L374.152 295.498C374.339 295.39 374.526 295.279 374.708 295.169C380.599 291.617 383.763 287.192 384.075 282.926H384.101V429.871V432.636V468.077V470.842V490.296V493.118H384.046C383.739 497.334 380.673 501.701 374.924 505.232C374.672 505.385 374.413 505.538 374.152 505.689L233.512 586.887C226.934 590.687 218.514 592.632 210.527 592.632ZM357.702 337.912C356.905 337.912 356.052 338.162 355.187 338.66L238.938 405.78C235.723 407.634 233.107 412.607 233.107 416.859V549.125C233.107 551.494 233.919 553.324 235.335 554.141C235.867 554.447 236.454 554.601 237.076 554.601C237.876 554.601 238.729 554.349 239.594 553.851L355.843 486.734C359.058 484.877 361.672 479.906 361.672 475.652V343.386C361.672 341.017 360.857 339.187 359.444 338.37C358.912 338.066 358.325 337.912 357.702 337.912ZM237.084 553.293C236.686 553.293 236.319 553.199 235.991 553.01C234.99 552.43 234.413 551.015 234.413 549.125V416.859C234.413 413.021 236.736 408.558 239.594 406.913L355.843 339.793C356.505 339.41 357.13 339.218 357.695 339.218C358.093 339.218 358.459 339.314 358.787 339.503C359.789 340.08 360.366 341.496 360.366 343.386V475.652C360.366 479.489 358.042 483.955 355.187 485.6L238.938 552.72C238.274 553.101 237.649 553.293 237.084 553.293Z" fill="#FDF5E9"/>
</g>
<path d="M381.981 282.927V495.43H381.925C381.772 497.548 380.912 499.701 379.41 501.778C382.256 499.035 383.827 496.043 384.041 493.119H384.096V282.927H381.981Z" fill="#212121"/>
<mask id="mask8_306_794" style="mask-type:luminance" maskUnits="userSpaceOnUse" x="40" y="273" width="345" height="110">
<path d="M210.523 382.442C204.304 382.442 198.349 381.261 193.738 378.856C198.347 381.259 204.299 382.43 210.516 382.43C211.016 382.43 211.517 382.423 212.018 382.406C212.006 382.406 211.994 382.406 211.982 382.406C219.276 382.195 226.815 380.391 232.892 377.045C226.41 380.614 218.263 382.442 210.523 382.442ZM210.516 382.339C204.977 382.006 199.791 380.705 195.767 378.382L49.2883 293.813C40.6741 288.84 40.08 280.793 46.9359 274.232L192.875 358.492C197.594 361.215 203.909 362.552 210.523 362.552C218.51 362.552 226.93 360.604 233.508 356.808L374.148 275.609C375.085 275.068 375.957 274.505 376.764 273.925C384.102 280.072 381.979 289.235 371.128 295.499L230.49 376.697C224.733 380.02 217.568 381.917 210.516 382.339ZM374.704 295.171C384.566 289.221 386.789 280.827 380.767 274.821C383.191 277.241 384.281 280.048 384.071 282.928C383.759 287.194 380.595 291.618 374.704 295.171Z" fill="white"/>
</mask>
<g mask="url(#mask8_306_794)">
<path d="M210.523 382.442C204.304 382.442 198.349 381.261 193.738 378.856C198.347 381.259 204.299 382.43 210.516 382.43C211.016 382.43 211.517 382.423 212.018 382.406C212.006 382.406 211.994 382.406 211.982 382.406C219.276 382.195 226.815 380.391 232.892 377.045C226.41 380.614 218.263 382.442 210.523 382.442ZM210.516 382.339C204.977 382.006 199.791 380.705 195.767 378.382L49.2883 293.813C40.6741 288.84 40.08 280.793 46.9359 274.232L192.875 358.492C197.594 361.215 203.909 362.552 210.523 362.552C218.51 362.552 226.93 360.604 233.508 356.808L374.148 275.609C375.085 275.068 375.957 274.505 376.764 273.925C384.102 280.072 381.979 289.235 371.128 295.499L230.49 376.697C224.733 380.02 217.568 381.917 210.516 382.339ZM374.704 295.171C384.566 289.221 386.789 280.827 380.767 274.821C383.191 277.241 384.281 280.048 384.071 282.928C383.759 287.194 380.595 291.618 374.704 295.171Z" fill="#FDF5E9"/>
</g>
<path d="M195.767 378.381L49.2886 293.812C38.8754 287.8 40.1809 277.295 52.2064 270.353L192.844 189.155C199.015 185.593 206.803 183.674 214.337 183.446C205.945 183.204 196.917 185.135 189.953 189.155L49.315 270.353C37.2896 277.295 35.984 287.8 46.3973 293.812L192.876 378.381C197.949 381.311 204.868 382.621 212.018 382.405C205.919 382.231 200.153 380.913 195.767 378.381Z" fill="#212121"/>
<path d="M377.066 272.039L230.585 187.471C225.492 184.529 218.533 183.219 211.346 183.449C217.436 183.628 223.19 184.943 227.566 187.471L374.045 272.039C384.46 278.052 383.153 288.556 371.127 295.499L230.489 376.697C224.347 380.245 216.597 382.163 209.095 382.405C217.496 382.652 226.536 380.724 233.507 376.697L374.148 295.499C386.173 288.556 387.479 278.052 377.066 272.039Z" fill="#212121"/>
<mask id="mask9_306_794" style="mask-type:luminance" maskUnits="userSpaceOnUse" x="83" y="208" width="258" height="150">
<path d="M197.692 353.991L88.6383 291.03C80.8864 286.553 81.859 278.734 90.8111 273.564L195.516 213.114C204.471 207.944 218.013 207.381 225.767 211.858L334.82 274.822C342.574 279.297 341.602 287.116 332.65 292.285L227.944 352.738C218.99 357.908 205.446 358.468 197.692 353.991Z" fill="white"/>
</mask>
<g mask="url(#mask9_306_794)">
<path d="M197.692 353.991L88.6383 291.03C80.8864 286.553 81.859 278.734 90.8111 273.564L195.516 213.114C204.471 207.944 218.013 207.381 225.767 211.858L334.82 274.822C342.574 279.297 341.602 287.116 332.65 292.285L227.944 352.738C218.99 357.908 205.446 358.468 197.692 353.991Z" fill="url(#paint1_linear_306_794)"/>
</g>
<path d="M201.562 334.413L122.553 288.798C116.936 285.555 117.64 279.889 124.127 276.145L199.986 232.348C206.473 228.601 216.285 228.196 221.902 231.438L300.911 277.053C306.528 280.299 305.824 285.962 299.337 289.708L223.478 333.506C216.991 337.25 207.179 337.657 201.562 334.413Z" fill="#89D8EB"/>
<mask id="mask10_306_794" style="mask-type:luminance" maskUnits="userSpaceOnUse" x="118" y="229" width="187" height="108">
<path d="M201.565 334.413L122.556 288.798C116.939 285.555 117.643 279.889 124.13 276.145L199.989 232.348C206.476 228.601 216.288 228.196 221.905 231.438L300.914 277.053C306.531 280.299 305.827 285.962 299.34 289.708L223.481 333.506C216.994 337.25 207.182 337.657 201.565 334.413Z" fill="white"/>
</mask>
<g mask="url(#mask10_306_794)">
<path d="M124.094 282.314L199.982 238.502C206.471 234.755 216.286 234.348 221.906 237.592L300.945 283.226C302.191 283.945 303.077 284.798 303.707 285.708C305.602 282.613 304.785 279.269 300.945 277.053L221.906 231.419C216.286 228.175 206.471 228.582 199.982 232.329L124.094 276.143C119.045 279.056 117.547 283.121 119.759 286.316C120.635 284.884 122.041 283.499 124.094 282.314Z" fill="#4B75C3"/>
<path d="M124.095 289.759L199.982 245.945C206.472 242.198 216.286 241.791 221.906 245.034L300.946 290.669C301.935 291.239 302.656 291.903 303.258 292.602C305.768 289.318 305.085 285.614 300.946 283.226L221.906 237.592C216.286 234.348 206.472 234.755 199.982 238.502L124.095 282.313C118.748 285.401 117.4 289.775 120.21 293.041C121.105 291.867 122.387 290.743 124.095 289.759Z" fill="#57C6EF"/>
<path d="M120.976 301.289C121.805 300.424 122.801 299.59 124.095 298.843L199.982 255.029C206.472 251.282 216.286 250.875 221.906 254.121L300.946 299.753C301.545 300.098 302.036 300.486 302.491 300.881C305.823 297.405 305.445 293.266 300.946 290.669L221.906 245.035C216.286 241.791 206.472 242.199 199.982 245.945L124.095 289.759C118.298 293.105 117.155 297.973 120.976 301.289Z" fill="#62CCEF"/>
</g>
<mask id="mask11_306_794" style="mask-type:luminance" maskUnits="userSpaceOnUse" x="39" y="248" width="346" height="115">
<path d="M210.521 362.552C203.907 362.552 197.593 361.216 192.873 358.492L46.9341 274.232L46.3951 273.923C45.9831 273.684 45.5878 273.439 45.2141 273.188C41.034 270.385 39.1463 266.77 39.4194 263.036H39.3954V249.489C39.6829 253.029 41.9922 256.374 46.3951 258.918L192.873 343.486C193.156 343.649 193.444 343.807 193.736 343.961C198.347 346.366 204.302 347.547 210.521 347.547C218.508 347.547 226.93 345.599 233.506 341.802L374.147 260.604C374.451 260.429 374.75 260.25 375.042 260.07C380.713 256.551 383.762 252.215 384.069 248.03H384.095V263.036H384.04C383.798 266.349 381.855 269.755 378.243 272.776C377.778 273.164 377.282 273.549 376.762 273.926C375.955 274.505 375.083 275.068 374.147 275.61L233.506 356.808C226.928 360.605 218.508 362.552 210.521 362.552Z" fill="white"/>
</mask>
<g mask="url(#mask11_306_794)">
<path d="M210.521 362.552C203.907 362.552 197.593 361.216 192.873 358.492L46.9341 274.232L46.3951 273.923C45.9831 273.684 45.5878 273.439 45.2141 273.188C41.034 270.385 39.1463 266.77 39.4194 263.036H39.3954V249.489C39.6829 253.029 41.9922 256.374 46.3951 258.918L192.873 343.486C193.156 343.649 193.444 343.807 193.736 343.961C198.347 346.366 204.302 347.547 210.521 347.547C218.508 347.547 226.93 345.599 233.506 341.802L374.147 260.604C374.451 260.429 374.75 260.25 375.042 260.07C380.713 256.551 383.762 252.215 384.069 248.03H384.095V263.036H384.04C383.798 266.349 381.855 269.755 378.243 272.776C377.778 273.164 377.282 273.549 376.762 273.926C375.955 274.505 375.083 275.068 374.147 275.61L233.506 356.808C226.928 360.605 218.508 362.552 210.521 362.552Z" fill="#F0E0C4"/>
</g>
<path d="M381.981 248.03V265.347H381.925C381.772 267.467 380.912 269.62 379.41 271.695C382.256 268.954 383.827 265.962 384.041 263.035H384.096V248.03H381.981Z" fill="#F0E0C4"/>
<mask id="mask12_306_794" style="mask-type:luminance" maskUnits="userSpaceOnUse" x="42" y="241" width="343" height="107">
<path d="M210.524 347.546C204.305 347.546 198.35 346.365 193.739 343.96C198.348 346.362 204.301 347.532 210.517 347.534C211.018 347.534 211.518 347.524 212.019 347.51C212.007 347.51 211.995 347.51 211.981 347.51C219.524 347.292 227.329 345.371 233.509 341.801C226.933 345.598 218.511 347.546 210.524 347.546ZM210.517 347.443C204.979 347.107 199.792 345.809 195.768 343.485L49.2895 258.917C42.0982 254.765 40.4956 248.472 44.1512 242.687C44.8267 243.214 45.5765 243.717 46.3981 244.194L192.876 328.763C197.596 331.486 203.913 332.823 210.524 332.823C218.511 332.823 226.931 330.878 233.509 327.079L374.15 245.88C376.238 244.675 378.001 243.36 379.434 241.983C383.269 247.864 380.352 255.28 371.129 260.603L230.491 341.801C224.734 345.124 217.569 347.019 210.517 347.443ZM375.045 260.069C383.116 255.062 385.878 248.398 382.977 242.874C383.839 244.515 384.201 246.259 384.072 248.029C383.765 252.214 380.716 256.55 375.045 260.069Z" fill="white"/>
</mask>
<g mask="url(#mask12_306_794)">
<path d="M210.524 347.546C204.305 347.546 198.35 346.365 193.739 343.96C198.348 346.362 204.301 347.532 210.517 347.534C211.018 347.534 211.518 347.524 212.019 347.51C212.007 347.51 211.995 347.51 211.981 347.51C219.524 347.292 227.329 345.371 233.509 341.801C226.933 345.598 218.511 347.546 210.524 347.546ZM210.517 347.443C204.979 347.107 199.792 345.809 195.768 343.485L49.2895 258.917C42.0982 254.765 40.4956 248.472 44.1512 242.687C44.8267 243.214 45.5765 243.717 46.3981 244.194L192.876 328.763C197.596 331.486 203.913 332.823 210.524 332.823C218.511 332.823 226.931 330.878 233.509 327.079L374.15 245.88C376.238 244.675 378.001 243.36 379.434 241.983C383.269 247.864 380.352 255.28 371.129 260.603L230.491 341.801C224.734 345.124 217.569 347.019 210.517 347.443ZM375.045 260.069C383.116 255.062 385.878 248.398 382.977 242.874C383.839 244.515 384.201 246.259 384.072 248.029C383.765 252.214 380.716 256.55 375.045 260.069Z" fill="#FDF5E9"/>
</g>
<path d="M195.767 343.486L49.2886 258.917C38.8754 252.904 40.1809 242.4 52.2064 235.458L192.844 154.26C199.015 150.698 206.803 148.776 214.337 148.551C205.945 148.309 196.917 150.24 189.953 154.26L49.315 235.458C37.2896 242.4 35.984 252.904 46.3973 258.917L192.876 343.486C197.949 346.416 204.868 347.726 212.018 347.51C205.919 347.336 200.153 346.018 195.767 343.486Z" fill="#212121"/>
<path d="M377.066 237.144L230.585 152.575C225.492 149.633 218.533 148.323 211.346 148.551C217.436 148.733 223.19 150.048 227.566 152.575L374.045 237.144C384.46 243.157 383.153 253.661 371.127 260.603L230.489 341.801C224.347 345.347 216.597 347.268 209.095 347.51C217.496 347.756 226.536 345.828 233.507 341.801L374.148 260.603C386.173 253.661 387.479 243.157 377.066 237.144Z" fill="#212121"/>
<mask id="mask13_306_794" style="mask-type:luminance" maskUnits="userSpaceOnUse" x="83" y="173" width="258" height="150">
<path d="M197.692 319.096L88.6383 256.135C80.8864 251.658 81.859 243.839 90.8111 238.67L195.516 178.216C204.471 173.047 218.013 172.486 225.767 176.964L334.82 239.925C342.574 244.402 341.602 252.221 332.65 257.39L227.944 317.844C218.99 323.011 205.446 323.574 197.692 319.096Z" fill="white"/>
</mask>
<g mask="url(#mask13_306_794)">
<path d="M197.692 319.096L88.6383 256.135C80.8864 251.658 81.859 243.839 90.8111 238.67L195.516 178.216C204.471 173.047 218.013 172.486 225.767 176.964L334.82 239.925C342.574 244.402 341.602 252.221 332.65 257.39L227.944 317.844C218.99 323.011 205.446 323.574 197.692 319.096Z" fill="url(#paint2_linear_306_794)"/>
</g>
<path d="M201.562 299.519L122.553 253.904C116.936 250.66 117.64 244.995 124.127 241.248L199.986 197.454C206.473 193.707 216.285 193.3 221.902 196.543L300.911 242.159C306.528 245.402 305.824 251.068 299.337 254.814L223.478 298.609C216.991 302.355 207.179 302.763 201.562 299.519Z" fill="#89D8EB"/>
<mask id="mask14_306_794" style="mask-type:luminance" maskUnits="userSpaceOnUse" x="118" y="194" width="187" height="108">
<path d="M201.565 299.52L122.556 253.904C116.939 250.661 117.643 244.995 124.13 241.249L199.989 197.454C206.476 193.708 216.288 193.3 221.905 196.544L300.914 242.159C306.531 245.403 305.827 251.068 299.34 254.815L223.481 298.609C216.994 302.356 207.182 302.763 201.565 299.52Z" fill="white"/>
</mask>
<g mask="url(#mask14_306_794)">
<path d="M124.094 247.42L199.982 203.606C206.471 199.859 216.286 199.455 221.906 202.698L300.945 248.33C302.191 249.051 303.077 249.904 303.707 250.814C305.602 247.719 304.785 244.375 300.945 242.157L221.906 196.525C216.286 193.281 206.471 193.689 199.982 197.433L124.094 241.247C119.045 244.162 117.547 248.227 119.759 251.423C120.635 249.99 122.041 248.606 124.094 247.42Z" fill="#4B75C3"/>
<path d="M124.095 254.863L199.982 211.051C206.472 207.305 216.286 206.897 221.906 210.141L300.946 255.775C301.935 256.346 302.656 257.009 303.258 257.709C305.768 254.424 305.085 250.721 300.946 248.33L221.906 202.698C216.286 199.455 206.472 199.859 199.982 203.606L124.095 247.42C118.748 250.508 117.4 254.879 120.21 258.147C121.105 256.973 122.387 255.85 124.095 254.863Z" fill="#57C6EF"/>
<path d="M120.976 266.395C121.805 265.53 122.801 264.694 124.095 263.949L199.982 220.135C206.472 216.389 216.286 215.981 221.906 219.227L300.946 264.859C301.545 265.204 302.036 265.59 302.491 265.988C305.823 262.512 305.445 258.372 300.946 255.776L221.906 210.141C216.286 206.898 206.472 207.305 199.982 211.052L124.095 254.863C118.298 258.212 117.155 263.08 120.976 266.395Z" fill="#62CCEF"/>
</g>
<mask id="mask15_306_794" style="mask-type:luminance" maskUnits="userSpaceOnUse" x="39" y="218" width="346" height="115">
<path d="M210.521 332.823C203.909 332.823 197.592 331.486 192.873 328.762L46.395 244.194C45.5734 243.717 44.8236 243.214 44.1481 242.687C43.4989 242.181 42.9168 241.652 42.4017 241.103C40.1931 238.756 39.2181 236.063 39.4193 233.308H39.3954V219.759C39.5151 221.221 39.9775 222.646 40.7872 223.999C41.9442 225.923 43.8079 227.693 46.395 229.188L85.6455 251.847L192.873 313.757C193.36 314.037 193.86 314.303 194.375 314.552C198.893 316.742 204.587 317.817 210.521 317.817C218.508 317.817 226.93 315.87 233.506 312.073L374.146 230.875C374.451 230.7 374.75 230.52 375.042 230.34C380.713 226.824 383.762 222.486 384.069 218.303H384.095V233.308H384.04C383.872 235.62 382.873 237.98 381.055 240.222C380.571 240.818 380.03 241.405 379.431 241.983C377.998 243.36 376.235 244.675 374.146 245.88L233.506 327.078C226.928 330.878 218.508 332.823 210.521 332.823Z" fill="white"/>
</mask>
<g mask="url(#mask15_306_794)">
<path d="M210.521 332.823C203.909 332.823 197.592 331.486 192.873 328.762L46.395 244.194C45.5734 243.717 44.8236 243.214 44.1481 242.687C43.4989 242.181 42.9168 241.652 42.4017 241.103C40.1931 238.756 39.2181 236.063 39.4193 233.308H39.3954V219.759C39.5151 221.221 39.9775 222.646 40.7872 223.999C41.9442 225.923 43.8079 227.693 46.395 229.188L85.6455 251.847L192.873 313.757C193.36 314.037 193.86 314.303 194.375 314.552C198.893 316.742 204.587 317.817 210.521 317.817C218.508 317.817 226.93 315.87 233.506 312.073L374.146 230.875C374.451 230.7 374.75 230.52 375.042 230.34C380.713 226.824 383.762 222.486 384.069 218.303H384.095V233.308H384.04C383.872 235.62 382.873 237.98 381.055 240.222C380.571 240.818 380.03 241.405 379.431 241.983C377.998 243.36 376.235 244.675 374.146 245.88L233.506 327.078C226.928 330.878 218.508 332.823 210.521 332.823Z" fill="#F0E0C4"/>
</g>
<path d="M381.981 218.304V235.621H381.925C381.772 237.738 380.912 239.892 379.41 241.969C382.256 239.226 383.827 236.234 384.041 233.309H384.096V218.304H381.981Z" fill="#F0E0C4"/>
<mask id="mask16_306_794" style="mask-type:luminance" maskUnits="userSpaceOnUse" x="40" y="167" width="345" height="151">
<path d="M210.523 317.816C204.589 317.816 198.895 316.74 194.377 314.551C198.89 316.736 204.582 317.804 210.513 317.804C211.014 317.804 211.515 317.797 212.018 317.78C212.006 317.78 211.994 317.78 211.979 317.78C219.523 317.562 227.328 315.641 233.508 312.071C226.932 315.868 218.51 317.816 210.523 317.816ZM210.516 317.713C204.977 317.38 199.791 316.079 195.767 313.756L49.2883 229.187C38.875 223.174 40.1806 212.67 52.206 205.728L118.761 167.301V192.804L90.8121 208.94C81.8601 214.109 80.8875 221.928 88.6394 226.406L197.693 289.367C201.207 291.396 205.907 292.39 210.832 292.39C216.778 292.39 223.047 290.941 227.946 288.114L332.651 227.661C341.603 222.491 342.576 214.672 334.821 210.195L304.446 192.658V167.232L374.045 207.414C384.461 213.429 383.153 223.931 371.128 230.873L230.49 312.071C224.733 315.394 217.568 317.291 210.516 317.713ZM375.044 230.339C383.901 224.846 386.363 217.358 381.97 211.568C383.548 213.65 384.243 215.952 384.071 218.302C383.764 222.484 380.715 226.822 375.044 230.339Z" fill="white"/>
</mask>
<g mask="url(#mask16_306_794)">
<path d="M210.523 317.816C204.589 317.816 198.895 316.74 194.377 314.551C198.89 316.736 204.582 317.804 210.513 317.804C211.014 317.804 211.515 317.797 212.018 317.78C212.006 317.78 211.994 317.78 211.979 317.78C219.523 317.562 227.328 315.641 233.508 312.071C226.932 315.868 218.51 317.816 210.523 317.816ZM210.516 317.713C204.977 317.38 199.791 316.079 195.767 313.756L49.2883 229.187C38.875 223.174 40.1806 212.67 52.206 205.728L118.761 167.301V192.804L90.8121 208.94C81.8601 214.109 80.8875 221.928 88.6394 226.406L197.693 289.367C201.207 291.396 205.907 292.39 210.832 292.39C216.778 292.39 223.047 290.941 227.946 288.114L332.651 227.661C341.603 222.491 342.576 214.672 334.821 210.195L304.446 192.658V167.232L374.045 207.414C384.461 213.429 383.153 223.931 371.128 230.873L230.49 312.071C224.733 315.394 217.568 317.291 210.516 317.713ZM375.044 230.339C383.901 224.846 386.363 217.358 381.97 211.568C383.548 213.65 384.243 215.952 384.071 218.302C383.764 222.484 380.715 226.822 375.044 230.339Z" fill="#FDF5E9"/>
</g>
<path d="M195.767 313.757L49.2886 229.189C38.8754 223.176 40.1809 212.672 52.2064 205.729L192.844 124.531C199.015 120.969 206.803 119.05 214.337 118.823C205.945 118.581 196.917 120.512 189.953 124.531L49.315 205.729C37.2896 212.672 35.984 223.176 46.3973 229.189L192.876 313.757C197.949 316.687 204.868 317.997 212.018 317.782C205.919 317.607 200.153 316.289 195.767 313.757Z" fill="#212121"/>
<path d="M377.066 207.415L230.585 122.847C225.492 119.905 218.533 118.595 211.346 118.824C217.436 119.004 223.19 120.319 227.566 122.847L374.045 207.415C384.46 213.43 383.153 223.932 371.127 230.874L230.489 312.073C224.347 315.62 216.597 317.539 209.095 317.781C217.496 318.028 226.536 316.1 233.507 312.073L374.148 230.874C386.173 223.932 387.479 213.43 377.066 207.415Z" fill="#212121"/>
<mask id="mask17_306_794" style="mask-type:luminance" maskUnits="userSpaceOnUse" x="83" y="192" width="258" height="101">
<path d="M210.831 292.392C205.906 292.392 201.206 291.397 197.692 289.368L88.6383 226.407C80.8864 221.93 81.859 214.111 90.8111 208.942L118.759 192.805V217.836H118.829C118.685 218.72 118.764 219.594 119.073 220.433C119.564 221.861 120.709 223.18 122.547 224.239L201.445 269.792C203.987 271.261 207.389 271.979 210.951 271.979C210.965 271.979 210.979 271.979 210.991 271.979C211.02 271.979 211.049 271.979 211.078 271.979C215.385 271.979 219.929 270.93 223.477 268.882L291.44 229.644L299.307 225.102L299.335 225.085C301.396 223.894 302.874 222.51 303.75 221.072C304.709 219.499 304.948 217.86 304.445 216.337V192.659L334.82 210.197C342.574 214.674 341.602 222.493 332.65 227.663L227.944 288.116C223.046 290.942 216.777 292.392 210.831 292.392Z" fill="white"/>
</mask>
<g mask="url(#mask17_306_794)">
<path d="M210.831 292.392C205.906 292.392 201.206 291.397 197.692 289.368L88.6383 226.407C80.8864 221.93 81.859 214.111 90.8111 208.942L118.759 192.805V217.836H118.829C118.685 218.72 118.764 219.594 119.073 220.433C119.564 221.861 120.709 223.18 122.547 224.239L201.445 269.792C203.987 271.261 207.389 271.979 210.951 271.979C210.965 271.979 210.979 271.979 210.991 271.979C211.02 271.979 211.049 271.979 211.078 271.979C215.385 271.979 219.929 270.93 223.477 268.882L291.44 229.644L299.307 225.102L299.335 225.085C301.396 223.894 302.874 222.51 303.75 221.072C304.709 219.499 304.948 217.86 304.445 216.337V192.659L334.82 210.197C342.574 214.674 341.602 222.493 332.65 227.663L227.944 288.116C223.046 290.942 216.777 292.392 210.831 292.392Z" fill="#F0E0C4"/>
</g>
<path d="M201.562 269.79L122.553 224.175C116.936 220.931 117.64 215.266 124.127 211.521L199.986 167.724C206.473 163.978 216.285 163.573 221.902 166.814L300.911 212.432C306.528 215.673 305.824 221.338 299.337 225.085L223.478 268.882C216.991 272.626 207.179 273.033 201.562 269.79Z" fill="#89D8EB"/>
<mask id="mask18_306_794" style="mask-type:luminance" maskUnits="userSpaceOnUse" x="118" y="164" width="187" height="108">
<path d="M201.565 269.789L122.556 224.174C116.939 220.931 117.643 215.265 124.13 211.521L199.989 167.724C206.476 163.977 216.288 163.572 221.905 166.814L300.914 212.431C306.531 215.672 305.827 221.338 299.34 225.084L223.481 268.881C216.994 272.626 207.182 273.033 201.565 269.789Z" fill="white"/>
</mask>
<g mask="url(#mask18_306_794)">
<path d="M124.094 217.689L199.982 173.877C206.471 170.131 216.286 169.724 221.906 172.967L300.945 218.602C302.191 219.32 303.077 220.173 303.707 221.083C305.602 217.988 304.785 214.644 300.945 212.428L221.906 166.794C216.286 163.55 206.471 163.958 199.982 167.704L124.094 211.516C119.045 214.434 117.547 218.499 119.759 221.692C120.635 220.259 122.041 218.875 124.094 217.689Z" fill="#4B75C3"/>
<path d="M124.095 225.134L199.982 181.32C206.472 177.574 216.286 177.166 221.906 180.41L300.946 226.044C301.935 226.615 302.656 227.281 303.258 227.978C305.768 224.693 305.085 220.99 300.946 218.602L221.906 172.967C216.286 169.724 206.472 170.131 199.982 173.877L124.095 217.689C118.748 220.777 117.4 225.151 120.21 228.416C121.105 227.242 122.387 226.119 124.095 225.134Z" fill="#57C6EF"/>
<path d="M120.976 236.664C121.805 235.799 122.801 234.966 124.095 234.218L199.982 190.404C206.472 186.658 216.286 186.251 221.906 189.496L300.946 235.129C301.545 235.474 302.036 235.859 302.491 236.257C305.823 232.781 305.445 228.641 300.946 226.045L221.906 180.41C216.286 177.167 206.472 177.574 199.982 181.321L124.095 225.134C118.298 228.481 117.155 233.349 120.976 236.664Z" fill="#62CCEF"/>
</g>
<mask id="mask19_306_794" style="mask-type:luminance" maskUnits="userSpaceOnUse" x="57" y="325" width="131" height="233">
<path d="M182.149 556.879L63.174 488.19C59.9688 486.338 57.3721 481.375 57.3721 477.104V331.014C57.3721 326.74 59.9688 324.778 63.174 326.627L182.149 395.319C185.355 397.168 187.951 402.131 187.951 406.403V552.493C187.951 556.766 185.355 558.731 182.149 556.879Z" fill="white"/>
</mask>
<g mask="url(#mask19_306_794)">
<path d="M182.149 556.879L63.174 488.19C59.9688 486.338 57.3721 481.375 57.3721 477.104V331.014C57.3721 326.74 59.9688 324.778 63.174 326.627L182.149 395.319C185.355 397.168 187.951 402.131 187.951 406.403V552.493C187.951 556.766 185.355 558.731 182.149 556.879Z" fill="#F0E0C4"/>
</g>
<path d="M184.275 555.982L65.2998 487.29C62.097 485.441 59.4979 480.478 59.4979 476.206V330.116C59.4979 328.202 60.0392 326.786 60.9016 325.934C58.8271 325.917 57.373 327.819 57.373 331.014V477.105C57.373 481.376 59.9698 486.339 63.175 488.191L182.15 556.88C183.921 557.903 185.487 557.728 186.551 556.676C185.851 556.669 185.083 556.449 184.275 555.982Z" fill="#212121"/>
<path d="M164.666 523.046L80.6559 474.544C78.3945 473.236 76.5596 469.731 76.5596 466.715V363.56C76.5596 360.544 78.3945 359.157 80.6559 360.462L164.666 408.967C166.93 410.272 168.763 413.777 168.763 416.793V519.948C168.763 522.967 166.93 524.354 164.666 523.046Z" fill="#89D8EB"/>
<path d="M86.4387 470.687C84.1773 469.381 82.3423 465.877 82.3423 462.861V361.435L80.6559 360.462C78.3945 359.157 76.5596 360.544 76.5596 363.56V466.715C76.5596 469.731 78.3945 473.236 80.6559 474.544L164.666 523.046C166.93 524.354 168.763 522.967 168.763 519.948V518.216L86.4387 470.687Z" fill="#212121"/>
<path d="M108.808 404.806L91.6777 394.915V392.006L108.808 401.898V404.806Z" fill="#4B75C3"/>
<path d="M122.412 412.661L113.848 407.716V404.806L122.412 409.753V412.661Z" fill="#62CCEF"/>
<path d="M135.451 420.188L126.885 415.244V412.335L135.451 417.28V420.188Z" fill="#4B75C3"/>
<path d="M148.486 427.716L139.922 422.77V419.861L148.486 424.806V427.716Z" fill="#4B75C3"/>
<path d="M108.808 411.789L91.6777 401.898V398.987L108.808 408.878V411.789Z" fill="#4B75C3"/>
<path d="M122.412 419.644L113.848 414.697V411.789L122.412 416.733V419.644Z" fill="#62CCEF"/>
<path d="M135.451 427.17L126.885 422.224V419.316L135.451 424.26V427.17Z" fill="#4B75C3"/>
<path d="M148.486 434.697L139.922 429.753V426.842L148.486 431.789V434.697Z" fill="#4B75C3"/>
<path d="M108.808 418.77L91.6777 408.878V405.97L108.808 415.861V418.77Z" fill="#4B75C3"/>
<path d="M128.963 427.497L126.884 426.297L113.848 418.77V421.68L126.884 429.207L128.963 430.407L135.45 434.151V431.243L128.963 427.497Z" fill="#4B75C3"/>
<path d="M148.486 441.677L139.922 436.733V433.825L148.486 438.769V441.677Z" fill="#4B75C3"/>
<path d="M152.959 427.388V444.26L161.525 449.207V432.333L152.959 427.388Z" fill="#4B75C3"/>
<path d="M108.808 425.752L91.6777 415.861V412.951L108.808 422.842V425.752Z" fill="#62CCEF"/>
<path d="M122.412 433.605L113.848 428.661V425.752L122.412 430.697V433.605Z" fill="#4B75C3"/>
<path d="M135.451 438.223L133.163 436.903L126.885 433.279V436.187L133.163 439.811L135.451 441.133L148.488 448.66V445.75L135.451 438.223Z" fill="#4B75C3"/>
<path d="M161.525 456.188L152.959 451.243V448.333L161.525 453.279V456.188Z" fill="#4B75C3"/>
<path d="M108.808 446.696L91.6777 436.805V433.897L108.808 443.788V446.696Z" fill="#4B75C3"/>
<path d="M122.412 454.551L113.848 449.604V446.696L122.412 451.64V454.551Z" fill="#4B75C3"/>
<path d="M135.451 459.17L133.163 457.848L126.885 454.223V457.134L133.163 460.756L135.451 462.078L148.488 469.605V466.697L135.451 459.17Z" fill="#4B75C3"/>
<path d="M161.525 477.131L152.959 472.187V469.278L161.525 474.223V477.131Z" fill="#4B75C3"/>
<path d="M108.808 453.679L91.6777 443.788V440.877L108.808 450.768V453.679Z" fill="#4B75C3"/>
<path d="M122.412 461.531L113.848 456.587V453.679L122.412 458.623V461.531Z" fill="#4B75C3"/>
<path d="M161.525 484.114L152.959 479.169V476.259L161.525 481.206V484.114Z" fill="#4B75C3"/>
<path d="M108.808 460.66L91.6777 450.769V447.86L108.808 457.752V460.66Z" fill="#4B75C3"/>
<path d="M122.412 468.515L113.848 463.568V460.66L122.412 465.606V468.515Z" fill="#4B75C3"/>
<path d="M135.451 466.15L133.163 464.83L126.885 461.206V471.097L133.163 474.721L135.451 476.041L148.488 483.568V476.587V475.713V473.677L135.451 466.15Z" fill="#62CCEF"/>
<path d="M161.525 491.097L152.959 486.15V483.242L161.525 488.186V491.097Z" fill="#4B75C3"/>
<path d="M108.808 432.733L91.6777 422.842V419.934L108.808 429.825V432.733Z" fill="#4B75C3"/>
<path d="M122.412 440.587L113.848 435.641V432.733L122.412 437.679V440.587Z" fill="#62CCEF"/>
<path d="M148.486 455.642L139.922 450.697V447.789L148.486 452.733V455.642Z" fill="#4B75C3"/>
<path d="M161.525 463.167L152.959 458.223V455.315L161.525 460.259V463.167Z" fill="#4B75C3"/>
<path d="M108.808 439.713L91.6777 429.824V426.914L108.808 436.805V439.713Z" fill="#4B75C3"/>
<path d="M122.412 447.568L113.848 442.624V439.715L122.412 444.66V447.568Z" fill="#4B75C3"/>
<path d="M126.885 440.26V450.151L135.451 455.095V445.207L126.885 440.26Z" fill="#62CCEF"/>
<path d="M148.486 462.624L139.922 457.677V454.769L148.486 459.713V462.624Z" fill="#4B75C3"/>
<path d="M161.525 470.151L152.959 465.204V462.296L161.525 467.243V470.151Z" fill="#4B75C3"/>
<mask id="mask20_306_794" style="mask-type:luminance" maskUnits="userSpaceOnUse" x="233" y="337" width="129" height="218">
<path d="M237.072 554.601C236.449 554.601 235.862 554.447 235.33 554.141C233.915 553.324 233.103 551.494 233.103 549.124V416.859C233.103 412.607 235.718 407.634 238.933 405.779L355.183 338.66C356.047 338.161 356.9 337.912 357.698 337.912C358.321 337.912 358.908 338.066 359.439 338.37C360.853 339.187 361.667 341.017 361.667 343.386V475.652C361.667 479.906 359.054 484.877 355.839 486.733L239.59 553.851C238.725 554.349 237.872 554.601 237.072 554.601ZM357.691 339.218C357.125 339.218 356.5 339.409 355.839 339.793L239.59 406.913C236.732 408.558 234.408 413.021 234.408 416.859V549.124C234.408 551.015 234.985 552.43 235.987 553.01C236.315 553.199 236.681 553.293 237.079 553.293C237.644 553.293 238.27 553.101 238.933 552.72L355.183 485.6C358.038 483.955 360.362 479.489 360.362 475.652V343.386C360.362 341.496 359.784 340.08 358.783 339.503C358.455 339.314 358.088 339.218 357.691 339.218Z" fill="white"/>
</mask>
<g mask="url(#mask20_306_794)">
<path d="M237.072 554.601C236.449 554.601 235.862 554.447 235.33 554.141C233.915 553.324 233.103 551.494 233.103 549.124V416.859C233.103 412.607 235.718 407.634 238.933 405.779L355.183 338.66C356.047 338.161 356.9 337.912 357.698 337.912C358.321 337.912 358.908 338.066 359.439 338.37C360.853 339.187 361.667 341.017 361.667 343.386V475.652C361.667 479.906 359.054 484.877 355.839 486.733L239.59 553.851C238.725 554.349 237.872 554.601 237.072 554.601ZM357.691 339.218C357.125 339.218 356.5 339.409 355.839 339.793L239.59 406.913C236.732 408.558 234.408 413.021 234.408 416.859V549.124C234.408 551.015 234.985 552.43 235.987 553.01C236.315 553.199 236.681 553.293 237.079 553.293C237.644 553.293 238.27 553.101 238.933 552.72L355.183 485.6C358.038 483.955 360.362 479.489 360.362 475.652V343.386C360.362 341.496 359.784 340.08 358.783 339.503C358.455 339.314 358.088 339.218 357.691 339.218Z" fill="#212121"/>
</g>
<mask id="mask21_306_794" style="mask-type:luminance" maskUnits="userSpaceOnUse" x="118" y="118" width="187" height="75">
<path d="M118.764 192.805V167.303L192.847 124.531C198.606 121.206 205.776 119.313 212.828 118.889C218.367 119.225 223.548 120.525 227.57 122.847L304.449 167.233V192.659L225.771 147.235C222.259 145.206 217.559 144.215 212.634 144.215C206.689 144.215 200.417 145.662 195.521 148.491L118.764 192.805ZM189.956 124.531C196.534 120.734 204.957 118.786 212.941 118.786C219.401 118.786 225.575 120.061 230.256 122.657C225.577 120.063 219.406 118.798 212.95 118.798C212.419 118.798 211.884 118.805 211.35 118.825C211.369 118.825 211.386 118.825 211.403 118.825C203.886 119.055 196.115 120.976 189.956 124.531Z" fill="white"/>
</mask>
<g mask="url(#mask21_306_794)">
<rect x="117.239" y="116.746" width="188.814" height="78.3811" fill="#FDF5E9"/>
</g>
<mask id="mask22_306_794" style="mask-type:luminance" maskUnits="userSpaceOnUse" x="118" y="118" width="95" height="50">
<path d="M118.764 167.303V165.635L189.956 124.531C196.115 120.976 203.886 119.055 211.403 118.825C211.882 118.839 212.356 118.861 212.828 118.889C205.776 119.313 198.606 121.206 192.847 124.531L118.764 167.303Z" fill="white"/>
</mask>
<g mask="url(#mask22_306_794)">
<path d="M118.764 167.303V165.635L189.956 124.531C196.115 120.976 203.886 119.055 211.403 118.825C211.882 118.839 212.356 118.861 212.828 118.889C205.776 119.313 198.606 121.206 192.847 124.531L118.764 167.303Z" fill="#212121"/>
</g>
<mask id="mask23_306_794" style="mask-type:luminance" maskUnits="userSpaceOnUse" x="211" y="118" width="94" height="50">
<path d="M304.445 167.233L227.566 122.847C223.544 120.525 218.362 119.225 212.824 118.889C212.352 118.86 211.877 118.839 211.398 118.824C211.382 118.824 211.365 118.824 211.346 118.824C211.88 118.805 212.414 118.798 212.946 118.798C219.402 118.798 225.573 120.063 230.251 122.657C230.364 122.72 230.474 122.782 230.584 122.847L304.445 165.489V167.233Z" fill="white"/>
</mask>
<g mask="url(#mask23_306_794)">
<path d="M304.445 167.233L227.566 122.847C223.544 120.525 218.362 119.225 212.824 118.889C212.352 118.86 211.877 118.839 211.398 118.824C211.382 118.824 211.365 118.824 211.346 118.824C211.88 118.805 212.414 118.798 212.946 118.798C219.402 118.798 225.573 120.063 230.251 122.657C230.364 122.72 230.474 122.782 230.584 122.847L304.445 165.489V167.233Z" fill="#212121"/>
</g>
<mask id="mask24_306_794" style="mask-type:luminance" maskUnits="userSpaceOnUse" x="118" y="144" width="187" height="128">
<path d="M210.955 271.979C207.393 271.979 203.991 271.26 201.45 269.792L122.551 224.239C120.714 223.18 119.569 221.86 119.077 220.432C119.233 220.856 119.449 221.271 119.719 221.668C120.349 222.593 121.293 223.446 122.556 224.174L124.158 225.099L132.025 229.641L201.564 269.79C204.089 271.246 207.46 271.967 210.996 271.979C210.984 271.979 210.969 271.979 210.955 271.979ZM118.833 217.836H118.764V192.805L195.521 148.49C200.417 145.661 206.689 144.214 212.634 144.214C217.559 144.214 222.259 145.206 225.771 147.235L304.449 192.659V216.336C303.965 214.872 302.792 213.517 300.914 212.431L221.905 166.814C219.358 165.345 215.954 164.624 212.385 164.624C208.078 164.624 203.536 165.676 199.988 167.724L124.13 211.521C120.979 213.339 119.192 215.608 118.833 217.836Z" fill="white"/>
</mask>
<g mask="url(#mask24_306_794)">
<rect x="117.239" y="141.897" width="188.814" height="131.322" fill="#F0E0C4"/>
</g>
<mask id="mask25_306_794" style="mask-type:luminance" maskUnits="userSpaceOnUse" x="118" y="170" width="183" height="102">
<path d="M210.993 271.979C207.457 271.967 204.087 271.246 201.562 269.79L132.023 229.641L199.981 190.405C203.529 188.357 208.075 187.305 212.383 187.305C215.952 187.305 219.361 188.026 221.905 189.497L291.372 229.602L223.335 268.884C219.801 270.925 215.284 271.972 210.993 271.979ZM119.717 221.668C119.446 221.271 119.231 220.856 119.075 220.432C119.008 220.238 118.953 220.042 118.912 219.846C119.063 220.466 119.336 221.072 119.729 221.652C119.727 221.657 119.722 221.664 119.717 221.668ZM221.778 172.896C219.251 171.475 215.899 170.778 212.395 170.778C215.899 170.778 219.248 171.475 221.778 172.896Z" fill="white"/>
</mask>
<g mask="url(#mask25_306_794)">
<path d="M210.993 271.979C207.457 271.967 204.087 271.246 201.562 269.79L132.023 229.641L199.981 190.405C203.529 188.357 208.075 187.305 212.383 187.305C215.952 187.305 219.361 188.026 221.905 189.497L291.372 229.602L223.335 268.884C219.801 270.925 215.284 271.972 210.993 271.979ZM119.717 221.668C119.446 221.271 119.231 220.856 119.075 220.432C119.008 220.238 118.953 220.042 118.912 219.846C119.063 220.466 119.336 221.072 119.729 221.652C119.727 221.657 119.722 221.664 119.717 221.668ZM221.778 172.896C219.251 171.475 215.899 170.778 212.395 170.778C215.899 170.778 219.248 171.475 221.778 172.896Z" fill="url(#paint3_linear_306_794)"/>
</g>
<mask id="mask26_306_794" style="mask-type:luminance" maskUnits="userSpaceOnUse" x="118" y="164" width="187" height="58">
<path d="M119.727 221.653C119.334 221.074 119.061 220.468 118.91 219.847C118.766 219.191 118.759 218.515 118.877 217.837H118.829C119.188 215.609 120.975 213.341 124.125 211.523L199.984 167.726C203.532 165.677 208.074 164.626 212.381 164.626C215.95 164.626 219.354 165.347 221.9 166.815L300.909 212.433C302.787 213.518 303.961 214.874 304.445 216.338V217.837H304.371C304.404 218.841 304.15 219.869 303.606 220.872C302.991 220.048 302.116 219.287 300.979 218.623C300.967 218.616 300.955 218.609 300.943 218.604L221.903 172.969C221.862 172.945 221.819 172.921 221.776 172.897C219.246 171.477 215.897 170.78 212.393 170.78C212.388 170.78 212.385 170.78 212.381 170.78C212.376 170.78 212.371 170.78 212.364 170.78C208.095 170.782 203.594 171.815 200.063 173.832C200.034 173.846 200.008 173.863 199.979 173.88L124.092 217.691C122.053 218.87 120.594 220.233 119.727 221.653Z" fill="white"/>
</mask>
<g mask="url(#mask26_306_794)">
<path d="M119.727 221.653C119.334 221.074 119.061 220.468 118.91 219.847C118.766 219.191 118.759 218.515 118.877 217.837H118.829C119.188 215.609 120.975 213.341 124.125 211.523L199.984 167.726C203.532 165.677 208.074 164.626 212.381 164.626C215.95 164.626 219.354 165.347 221.9 166.815L300.909 212.433C302.787 213.518 303.961 214.874 304.445 216.338V217.837H304.371C304.404 218.841 304.15 219.869 303.606 220.872C302.991 220.048 302.116 219.287 300.979 218.623C300.967 218.616 300.955 218.609 300.943 218.604L221.903 172.969C221.862 172.945 221.819 172.921 221.776 172.897C219.246 171.477 215.897 170.78 212.393 170.78C212.388 170.78 212.385 170.78 212.381 170.78C212.376 170.78 212.371 170.78 212.364 170.78C208.095 170.782 203.594 171.815 200.063 173.832C200.034 173.846 200.008 173.863 199.979 173.88L124.092 217.691C122.053 218.87 120.594 220.233 119.727 221.653Z" fill="url(#paint4_linear_306_794)"/>
</g>
<mask id="mask27_306_794" style="mask-type:luminance" maskUnits="userSpaceOnUse" x="119" y="170" width="185" height="56">
<path d="M124.156 225.1L122.553 224.175C121.291 223.447 120.347 222.594 119.717 221.669C119.722 221.664 119.726 221.657 119.729 221.652C120.596 220.232 122.055 218.869 124.093 217.69L199.981 173.879C200.01 173.862 200.036 173.845 200.065 173.831C203.596 171.814 208.097 170.781 212.366 170.779C212.373 170.779 212.378 170.779 212.382 170.779C212.387 170.779 212.39 170.779 212.394 170.779C215.899 170.779 219.25 171.476 221.778 172.897C221.821 172.921 221.864 172.945 221.905 172.969L300.944 218.603C300.956 218.608 300.968 218.615 300.98 218.622C302.118 219.286 302.993 220.048 303.608 220.872C302.798 222.369 301.347 223.816 299.239 225.061L221.905 180.411C219.363 178.943 215.959 178.224 212.394 178.222C212.39 178.222 212.387 178.222 212.382 178.222C212.378 178.222 212.373 178.222 212.366 178.222C208.082 178.224 203.569 179.264 200.031 181.293C200.014 181.303 199.998 181.312 199.981 181.322L124.156 225.1Z" fill="white"/>
</mask>
<g mask="url(#mask27_306_794)">
<path d="M124.156 225.1L122.553 224.175C121.291 223.447 120.347 222.594 119.717 221.669C119.722 221.664 119.726 221.657 119.729 221.652C120.596 220.232 122.055 218.869 124.093 217.69L199.981 173.879C200.01 173.862 200.036 173.845 200.065 173.831C203.596 171.814 208.097 170.781 212.366 170.779C212.373 170.779 212.378 170.779 212.382 170.779C212.387 170.779 212.39 170.779 212.394 170.779C215.899 170.779 219.25 171.476 221.778 172.897C221.821 172.921 221.864 172.945 221.905 172.969L300.944 218.603C300.956 218.608 300.968 218.615 300.98 218.622C302.118 219.286 302.993 220.048 303.608 220.872C302.798 222.369 301.347 223.816 299.239 225.061L221.905 180.411C219.363 178.943 215.959 178.224 212.394 178.222C212.39 178.222 212.387 178.222 212.382 178.222C212.378 178.222 212.373 178.222 212.366 178.222C208.082 178.224 203.569 179.264 200.031 181.293C200.014 181.303 199.998 181.312 199.981 181.322L124.156 225.1Z" fill="url(#paint5_linear_306_794)"/>
</g>
<mask id="mask28_306_794" style="mask-type:luminance" maskUnits="userSpaceOnUse" x="124" y="178" width="176" height="52">
<path d="M132.023 229.641L124.156 225.099L199.981 181.321C199.998 181.312 200.015 181.302 200.032 181.293C203.57 179.264 208.083 178.224 212.366 178.221C212.373 178.221 212.378 178.221 212.383 178.221C212.388 178.221 212.39 178.221 212.395 178.221C215.959 178.224 219.363 178.943 221.905 180.411L299.239 225.061C299.189 225.09 299.139 225.121 299.088 225.15L291.372 229.603L221.905 189.497C219.361 188.026 215.952 187.305 212.383 187.305C208.076 187.305 203.529 188.357 199.981 190.405L132.023 229.641Z" fill="white"/>
</mask>
<g mask="url(#mask28_306_794)">
<path d="M132.023 229.641L124.156 225.099L199.981 181.321C199.998 181.312 200.015 181.302 200.032 181.293C203.57 179.264 208.083 178.224 212.366 178.221C212.373 178.221 212.378 178.221 212.383 178.221C212.388 178.221 212.39 178.221 212.395 178.221C215.959 178.224 219.363 178.943 221.905 180.411L299.239 225.061C299.189 225.09 299.139 225.121 299.088 225.15L291.372 229.603L221.905 189.497C219.361 188.026 215.952 187.305 212.383 187.305C208.076 187.305 203.529 188.357 199.981 190.405L132.023 229.641Z" fill="url(#paint6_linear_306_794)"/>
</g>
<defs>
<radialGradient id="paint0_radial_306_794" cx="0" cy="0" r="1" gradientUnits="userSpaceOnUse" gradientTransform="translate(-107.639 30.0455) scale(1033.96 1004.37)">
<stop stop-color="#8FDAEB"/>
<stop offset="1" stop-color="#8FDAEB"/>
</radialGradient>
<linearGradient id="paint1_linear_306_794" x1="81.3128" y1="282.926" x2="322.03" y2="342.488" gradientUnits="userSpaceOnUse">
<stop stop-color="#59268C"/>
<stop offset="1" stop-color="#2D429F"/>
</linearGradient>
<linearGradient id="paint2_linear_306_794" x1="81.3128" y1="248.031" x2="322.03" y2="307.593" gradientUnits="userSpaceOnUse">
<stop stop-color="#59268C"/>
<stop offset="1" stop-color="#2D429F"/>
</linearGradient>
<linearGradient id="paint3_linear_306_794" x1="211.604" y1="271.979" x2="211.604" y2="-6.904e-05" gradientUnits="userSpaceOnUse">
<stop stop-color="#89D8EB"/>
<stop offset="1" stop-color="#89D8EB"/>
</linearGradient>
<linearGradient id="paint4_linear_306_794" x1="211.602" y1="271.981" x2="211.602" y2="0.00144034" gradientUnits="userSpaceOnUse">
<stop stop-color="#89D8EB"/>
<stop offset="1" stop-color="#4B76C3"/>
</linearGradient>
<linearGradient id="paint5_linear_306_794" x1="211.604" y1="271.98" x2="211.604" y2="0.000633017" gradientUnits="userSpaceOnUse">
<stop stop-color="#89D8EB"/>
<stop offset="1" stop-color="#57C5EF"/>
</linearGradient>
<linearGradient id="paint6_linear_306_794" x1="211.604" y1="271.979" x2="211.604" y2="0.000339059" gradientUnits="userSpaceOnUse">
<stop stop-color="#89D8EC"/>
<stop offset="1" stop-color="#62CCEF"/>
</linearGradient>
</defs>
</svg>
