<svg width="536" height="702" viewBox="0 0 536 702" fill="none" xmlns="http://www.w3.org/2000/svg">
<mask id="mask0_227_1037" style="mask-type:luminance" maskUnits="userSpaceOnUse" x="421" y="587" width="115" height="115">
<path d="M438.146 684.347C415.917 662.119 415.917 626.078 438.146 603.847C460.377 581.616 496.418 581.616 518.649 603.847C540.877 626.078 540.877 662.119 518.649 684.347C496.418 706.578 460.377 706.578 438.146 684.347Z" fill="white"/>
</mask>
<g mask="url(#mask0_227_1037)">
<path d="M438.146 684.347C415.917 662.119 415.917 626.078 438.146 603.847C460.377 581.616 496.418 581.616 518.649 603.847C540.877 626.078 540.877 662.119 518.649 684.347C496.418 706.578 460.377 706.578 438.146 684.347Z" fill="#FBCC31"/>
</g>
<mask id="mask1_227_1037" style="mask-type:luminance" maskUnits="userSpaceOnUse" x="3" y="174" width="62" height="62">
<path d="M12.0791 226.92C-0.0263638 214.814 -0.0263638 195.187 12.0791 183.08C24.1859 170.973 43.8136 170.973 55.9203 183.08C68.0258 195.187 68.0258 214.814 55.9203 226.92C43.8136 239.027 24.1859 239.027 12.0791 226.92Z" fill="white"/>
</mask>
<g mask="url(#mask1_227_1037)">
<path d="M12.0791 226.92C-0.0263638 214.814 -0.0263638 195.187 12.0791 183.08C24.1859 170.973 43.8136 170.973 55.9203 183.08C68.0258 195.187 68.0258 214.814 55.9203 226.92C43.8136 239.027 24.1859 239.027 12.0791 226.92Z" fill="#FBCC31"/>
</g>
<mask id="mask2_227_1037" style="mask-type:luminance" maskUnits="userSpaceOnUse" x="384" y="32" width="47" height="47">
<path d="M384 55.3228C384 42.4421 394.442 32.0001 407.323 32.0001C420.203 32.0001 430.645 42.4421 430.645 55.3228C430.645 68.2035 420.203 78.6455 407.323 78.6455C394.442 78.6455 384 68.2035 384 55.3228Z" fill="white"/>
</mask>
<g mask="url(#mask2_227_1037)">
<path d="M384 55.3228C384 42.4421 394.442 32.0001 407.323 32.0001C420.203 32.0001 430.645 42.4421 430.645 55.3228C430.645 68.2035 420.203 78.6455 407.323 78.6455C394.442 78.6455 384 68.2035 384 55.3228Z" fill="#F0E0C4"/>
</g>
<mask id="mask3_227_1037" style="mask-type:luminance" maskUnits="userSpaceOnUse" x="391" y="131" width="33" height="20">
<path d="M407.32 150.089C400.6 150.089 394.334 147.638 392.075 143.76C389.246 138.899 393.775 133.634 402.196 132C403.894 131.67 405.624 131.514 407.322 131.514C414.039 131.514 420.306 133.962 422.565 137.843C425.394 142.703 420.864 147.969 412.444 149.603C410.745 149.933 409.018 150.089 407.32 150.089Z" fill="white"/>
</mask>
<g mask="url(#mask3_227_1037)">
<path d="M407.32 150.089C400.6 150.089 394.334 147.638 392.075 143.76C389.246 138.899 393.775 133.634 402.196 132C403.894 131.67 405.624 131.514 407.322 131.514C414.039 131.514 420.306 133.962 422.565 137.843C425.394 142.703 420.864 147.969 412.444 149.603C410.745 149.933 409.018 150.089 407.32 150.089Z" fill="#1E1E23" fill-opacity="0.15"/>
</g>
<mask id="mask4_227_1037" style="mask-type:luminance" maskUnits="userSpaceOnUse" x="179" y="63" width="12" height="12">
<path d="M184.974 74.9463C181.676 74.9463 179 72.2705 179 68.9719C179 65.6733 181.676 62.9998 184.974 62.9998C188.273 62.9998 190.946 65.6733 190.946 68.9719C190.946 72.2705 188.273 74.9463 184.974 74.9463Z" fill="white"/>
</mask>
<g mask="url(#mask4_227_1037)">
<path d="M184.974 74.9463C181.676 74.9463 179 72.2705 179 68.9719C179 65.6733 181.676 62.9998 184.974 62.9998C188.273 62.9998 190.946 65.6733 190.946 68.9719C190.946 72.2705 188.273 74.9463 184.974 74.9463Z" fill="#509AD1"/>
</g>
<mask id="mask5_227_1037" style="mask-type:luminance" maskUnits="userSpaceOnUse" x="196" y="0" width="16" height="15">
<path d="M203.977 14.3975C200 14.3975 196.778 11.1731 196.778 7.19897C196.778 3.22242 200 0.000447638 203.977 0.000447638C207.953 0.000447638 211.175 3.22242 211.175 7.19897C211.175 11.1731 207.953 14.3975 203.977 14.3975Z" fill="white"/>
</mask>
<g mask="url(#mask5_227_1037)">
<path d="M203.977 14.3975C200 14.3975 196.778 11.1731 196.778 7.19897C196.778 3.22242 200 0.000447638 203.977 0.000447638C207.953 0.000447638 211.175 3.22242 211.175 7.19897C211.175 11.1731 207.953 14.3975 203.977 14.3975Z" fill="#FBCC31"/>
</g>
<mask id="mask6_227_1037" style="mask-type:luminance" maskUnits="userSpaceOnUse" x="234" y="95" width="8" height="8">
<path d="M237.828 102.658C235.713 102.658 234 100.945 234 98.8302C234 96.7149 235.713 94.9998 237.828 94.9998C239.943 94.9998 241.658 96.7149 241.658 98.8302C241.658 100.945 239.943 102.658 237.828 102.658Z" fill="white"/>
</mask>
<g mask="url(#mask6_227_1037)">
<path d="M237.828 102.658C235.713 102.658 234 100.945 234 98.8302C234 96.7149 235.713 94.9998 237.828 94.9998C239.943 94.9998 241.658 96.7149 241.658 98.8302C241.658 100.945 239.943 102.658 237.828 102.658Z" fill="url(#paint0_radial_227_1037)"/>
</g>
<path d="M347.339 606.025L346.048 601.414L356.301 598.547L353.433 588.291L358.047 587L362.206 601.869L347.339 606.025Z" fill="#F0E0C4"/>
<path d="M338.291 622.1L337 617.488L347.253 614.621L344.388 604.366L348.999 603.074L353.158 617.943L338.291 622.1Z" fill="#F0E0C4"/>
<path d="M347.897 616.929L343.741 602.06L358.608 597.904L359.899 602.517L349.646 605.382L352.511 615.637L347.897 616.929Z" fill="#F0E0C4"/>
<path d="M412.405 241.791C408.757 241.791 405.791 244.757 405.791 248.403C405.791 252.049 408.757 255.015 412.405 255.015C416.049 255.015 419.017 252.049 419.017 248.403C419.017 244.757 416.049 241.791 412.405 241.791ZM412.405 259.806C406.117 259.806 401 254.691 401 248.403C401 242.115 406.117 237 412.405 237C418.693 237 423.808 242.115 423.808 248.403C423.808 254.691 418.693 259.806 412.405 259.806Z" fill="#8AD9EC"/>
<path d="M21.0265 626.331L27.1925 632.497L33.3585 626.331L27.1925 620.165L21.0265 626.331ZM27.1925 639.271L14.252 626.331L27.1925 613.39L40.1331 626.331L27.1925 639.271Z" fill="#8AD9EC"/>
<path d="M474.735 322.666L460.882 308.815L464.269 305.428L478.122 319.279L474.735 322.666Z" fill="#509AD1"/>
<path d="M464.269 322.666L460.882 319.279L474.735 305.428L478.122 308.815L464.269 322.666Z" fill="#509AD1"/>
<path d="M188.929 638.723L8.97123 534.822C-3.82559 527.434 -2.22061 514.532 12.5549 506.002L185.341 406.243C200.114 397.713 222.464 396.788 235.258 404.173L415.219 508.074C428.016 515.462 426.411 528.366 411.635 536.897L238.852 636.653C224.076 645.183 201.726 646.11 188.929 638.723Z" fill="#181B39" fill-opacity="0.15"/>
<path d="M344.129 497.102C344.129 508.771 334.67 518.229 323.003 518.229C311.335 518.229 301.875 508.771 301.875 497.102C301.875 485.434 311.335 475.974 323.003 475.974C334.67 475.974 344.129 485.434 344.129 497.102Z" fill="#89D8EB"/>
<path d="M377.951 499.197C377.951 505.116 373.153 509.914 367.234 509.914C361.317 509.914 356.519 505.116 356.519 499.197C356.519 493.28 361.317 488.481 367.234 488.481C373.153 488.481 377.951 493.28 377.951 499.197Z" fill="#89D8EB"/>
<path d="M367.503 473.916C367.503 476.264 365.596 478.171 363.249 478.171C360.899 478.171 358.994 476.264 358.994 473.916C358.994 471.566 360.899 469.662 363.249 469.662C365.596 469.662 367.503 471.566 367.503 473.916Z" fill="#89D8EB"/>
<mask id="mask7_227_1037" style="mask-type:luminance" maskUnits="userSpaceOnUse" x="39" y="282" width="346" height="311">
<path d="M210.859 592.632C204.245 592.632 197.93 591.298 193.211 588.571L48.8985 505.253L46.7329 504.003C41.7287 501.114 39.4602 497.188 39.7572 493.118H39.7332V490.31V470.856V468.092V432.648V429.886V284.382C39.853 285.844 40.3154 287.271 41.125 288.622C42.2821 290.546 44.1458 292.316 46.7329 293.811L119.973 336.097L193.211 378.38C193.494 378.543 193.781 378.701 194.074 378.854C198.685 381.259 204.64 382.44 210.859 382.44C218.599 382.44 226.746 380.612 233.228 377.043C233.437 376.93 233.64 376.813 233.844 376.696L374.484 295.498C374.671 295.39 374.858 295.279 375.04 295.169C380.931 291.617 384.095 287.192 384.407 282.926H384.433V429.871V432.636V468.077V470.842V490.296V493.118H384.378C384.071 497.334 381.005 501.701 375.256 505.232C375.004 505.385 374.745 505.538 374.484 505.689L233.844 586.887C227.266 590.687 218.846 592.632 210.859 592.632ZM358.034 337.912C357.237 337.912 356.384 338.162 355.519 338.66L239.27 405.78C236.055 407.634 233.439 412.607 233.439 416.859V549.125C233.439 551.494 234.251 553.324 235.667 554.141C236.199 554.447 236.786 554.601 237.408 554.601C238.208 554.601 239.061 554.349 239.926 553.851L356.175 486.734C359.39 484.877 362.004 479.906 362.004 475.652V343.386C362.004 341.017 361.189 339.187 359.776 338.37C359.244 338.066 358.657 337.912 358.034 337.912ZM237.416 553.293C237.018 553.293 236.651 553.199 236.323 553.01C235.322 552.43 234.745 551.015 234.745 549.125V416.859C234.745 413.021 237.068 408.558 239.926 406.913L356.175 339.793C356.837 339.41 357.462 339.218 358.027 339.218C358.425 339.218 358.791 339.314 359.12 339.503C360.121 340.08 360.698 341.496 360.698 343.386V475.652C360.698 479.489 358.375 483.955 355.519 485.6L239.27 552.72C238.606 553.101 237.981 553.293 237.416 553.293Z" fill="white"/>
</mask>
<g mask="url(#mask7_227_1037)">
<path d="M210.859 592.632C204.245 592.632 197.93 591.298 193.211 588.571L48.8985 505.253L46.7329 504.003C41.7287 501.114 39.4602 497.188 39.7572 493.118H39.7332V490.31V470.856V468.092V432.648V429.886V284.382C39.853 285.844 40.3154 287.271 41.125 288.622C42.2821 290.546 44.1458 292.316 46.7329 293.811L119.973 336.097L193.211 378.38C193.494 378.543 193.781 378.701 194.074 378.854C198.685 381.259 204.64 382.44 210.859 382.44C218.599 382.44 226.746 380.612 233.228 377.043C233.437 376.93 233.64 376.813 233.844 376.696L374.484 295.498C374.671 295.39 374.858 295.279 375.04 295.169C380.931 291.617 384.095 287.192 384.407 282.926H384.433V429.871V432.636V468.077V470.842V490.296V493.118H384.378C384.071 497.334 381.005 501.701 375.256 505.232C375.004 505.385 374.745 505.538 374.484 505.689L233.844 586.887C227.266 590.687 218.846 592.632 210.859 592.632ZM358.034 337.912C357.237 337.912 356.384 338.162 355.519 338.66L239.27 405.78C236.055 407.634 233.439 412.607 233.439 416.859V549.125C233.439 551.494 234.251 553.324 235.667 554.141C236.199 554.447 236.786 554.601 237.408 554.601C238.208 554.601 239.061 554.349 239.926 553.851L356.175 486.734C359.39 484.877 362.004 479.906 362.004 475.652V343.386C362.004 341.017 361.189 339.187 359.776 338.37C359.244 338.066 358.657 337.912 358.034 337.912ZM237.416 553.293C237.018 553.293 236.651 553.199 236.323 553.01C235.322 552.43 234.745 551.015 234.745 549.125V416.859C234.745 413.021 237.068 408.558 239.926 406.913L356.175 339.793C356.837 339.41 357.462 339.218 358.027 339.218C358.425 339.218 358.791 339.314 359.12 339.503C360.121 340.08 360.698 341.496 360.698 343.386V475.652C360.698 479.489 358.375 483.955 355.519 485.6L239.27 552.72C238.606 553.101 237.981 553.293 237.416 553.293Z" fill="#FDF5E9"/>
</g>
<path d="M382.313 282.927V495.43H382.257C382.104 497.548 381.244 499.701 379.742 501.778C382.588 499.035 384.159 496.043 384.373 493.119H384.428V282.927H382.313Z" fill="#212121"/>
<mask id="mask8_227_1037" style="mask-type:luminance" maskUnits="userSpaceOnUse" x="41" y="273" width="344" height="110">
<path d="M210.855 382.441C204.636 382.441 198.681 381.26 194.07 378.855C198.679 381.258 204.631 382.429 210.848 382.429C211.348 382.429 211.849 382.422 212.35 382.405C212.338 382.405 212.326 382.405 212.314 382.405C219.608 382.195 227.147 380.391 233.224 377.044C226.742 380.614 218.595 382.441 210.855 382.441ZM210.848 382.338C205.309 382.005 200.123 380.705 196.099 378.381L49.6204 293.812C41.0061 288.839 40.412 280.793 47.268 274.231L193.207 358.491C197.926 361.215 204.241 362.551 210.855 362.551C218.842 362.551 227.262 360.604 233.84 356.807L374.48 275.609C375.417 275.067 376.289 274.504 377.096 273.925C384.434 280.072 382.311 289.234 371.46 295.499L230.822 376.697C225.065 380.02 217.9 381.917 210.848 382.338ZM375.036 295.171C384.898 289.22 387.121 280.826 381.099 274.821C383.523 277.24 384.613 280.048 384.403 282.927C384.091 287.194 380.927 291.618 375.036 295.171Z" fill="white"/>
</mask>
<g mask="url(#mask8_227_1037)">
<path d="M210.855 382.441C204.636 382.441 198.681 381.26 194.07 378.855C198.679 381.258 204.631 382.429 210.848 382.429C211.348 382.429 211.849 382.422 212.35 382.405C212.338 382.405 212.326 382.405 212.314 382.405C219.608 382.195 227.147 380.391 233.224 377.044C226.742 380.614 218.595 382.441 210.855 382.441ZM210.848 382.338C205.309 382.005 200.123 380.705 196.099 378.381L49.6204 293.812C41.0061 288.839 40.412 280.793 47.268 274.231L193.207 358.491C197.926 361.215 204.241 362.551 210.855 362.551C218.842 362.551 227.262 360.604 233.84 356.807L374.48 275.609C375.417 275.067 376.289 274.504 377.096 273.925C384.434 280.072 382.311 289.234 371.46 295.499L230.822 376.697C225.065 380.02 217.9 381.917 210.848 382.338ZM375.036 295.171C384.898 289.22 387.121 280.826 381.099 274.821C383.523 277.24 384.613 280.048 384.403 282.927C384.091 287.194 380.927 291.618 375.036 295.171Z" fill="#FDF5E9"/>
</g>
<path d="M196.099 378.381L49.6207 293.813C39.2074 287.8 40.5129 277.296 52.5384 270.353L193.176 189.155C199.347 185.593 207.135 183.674 214.669 183.447C206.277 183.205 197.249 185.136 190.285 189.155L49.6471 270.353C37.6216 277.296 36.316 287.8 46.7293 293.813L193.208 378.381C198.281 381.311 205.2 382.621 212.35 382.406C206.251 382.231 200.485 380.914 196.099 378.381Z" fill="#212121"/>
<path d="M377.398 272.039L230.917 187.47C225.824 184.528 218.865 183.218 211.679 183.448C217.768 183.628 223.522 184.943 227.899 187.47L374.377 272.039C384.792 278.052 383.485 288.556 371.459 295.498L230.821 376.696C224.679 380.244 216.929 382.163 209.427 382.405C217.828 382.652 226.868 380.723 233.839 376.696L374.48 295.498C386.505 288.556 387.811 278.052 377.398 272.039Z" fill="#212121"/>
<mask id="mask9_227_1037" style="mask-type:luminance" maskUnits="userSpaceOnUse" x="83" y="208" width="258" height="150">
<path d="M198.024 353.992L88.9703 291.03C81.2185 286.553 82.1911 278.734 91.1431 273.565L195.848 213.114C204.803 207.945 218.345 207.382 226.099 211.859L335.152 274.822C342.906 279.297 341.934 287.116 332.982 292.286L228.276 352.739C219.322 357.908 205.778 358.469 198.024 353.992Z" fill="white"/>
</mask>
<g mask="url(#mask9_227_1037)">
<path d="M198.024 353.992L88.9703 291.03C81.2185 286.553 82.1911 278.734 91.1431 273.565L195.848 213.114C204.803 207.945 218.345 207.382 226.099 211.859L335.152 274.822C342.906 279.297 341.934 287.116 332.982 292.286L228.276 352.739C219.322 357.908 205.778 358.469 198.024 353.992Z" fill="url(#paint1_linear_227_1037)"/>
</g>
<path d="M201.894 334.414L122.885 288.799C117.268 285.555 117.972 279.89 124.459 276.146L200.318 232.348C206.805 228.602 216.617 228.197 222.234 231.438L301.243 277.053C306.86 280.299 306.156 285.962 299.669 289.709L223.81 333.506C217.323 337.25 207.511 337.657 201.894 334.414Z" fill="#89D8EB"/>
<mask id="mask10_227_1037" style="mask-type:luminance" maskUnits="userSpaceOnUse" x="119" y="229" width="187" height="108">
<path d="M201.897 334.414L122.888 288.799C117.271 285.555 117.975 279.89 124.462 276.146L200.321 232.348C206.808 228.602 216.62 228.197 222.237 231.438L301.246 277.053C306.863 280.299 306.159 285.962 299.672 289.709L223.813 333.506C217.326 337.25 207.514 337.657 201.897 334.414Z" fill="white"/>
</mask>
<g mask="url(#mask10_227_1037)">
<path d="M124.426 282.314L200.314 238.502C206.803 234.755 216.618 234.348 222.238 237.592L301.277 283.226C302.523 283.945 303.409 284.798 304.039 285.708C305.934 282.613 305.117 279.269 301.277 277.053L222.238 231.419C216.618 228.175 206.803 228.582 200.314 232.329L124.426 276.143C119.377 279.056 117.88 283.121 120.091 286.316C120.967 284.884 122.374 283.499 124.426 282.314Z" fill="#4B75C3"/>
<path d="M124.427 289.759L200.314 245.945C206.804 242.199 216.618 241.791 222.238 245.035L301.278 290.669C302.267 291.24 302.988 291.903 303.59 292.603C306.1 289.318 305.418 285.615 301.278 283.227L222.238 237.592C216.618 234.349 206.804 234.756 200.314 238.502L124.427 282.314C119.08 285.402 117.732 289.776 120.542 293.041C121.437 291.867 122.719 290.744 124.427 289.759Z" fill="#57C6EF"/>
<path d="M121.308 301.289C122.137 300.424 123.133 299.591 124.427 298.843L200.314 255.029C206.804 251.283 216.618 250.876 222.238 254.121L301.278 299.754C301.877 300.099 302.368 300.487 302.823 300.882C306.155 297.406 305.777 293.266 301.278 290.67L222.238 245.035C216.618 241.792 206.804 242.199 200.314 245.946L124.427 289.759C118.63 293.106 117.487 297.974 121.308 301.289Z" fill="#62CCEF"/>
</g>
<mask id="mask11_227_1037" style="mask-type:luminance" maskUnits="userSpaceOnUse" x="39" y="248" width="346" height="115">
<path d="M210.853 362.552C204.239 362.552 197.925 361.215 193.205 358.491L47.2661 274.232L46.7271 273.923C46.3151 273.683 45.9199 273.439 45.5462 273.187C41.366 270.384 39.4784 266.77 39.7514 263.035H39.7275V249.488C40.0149 253.029 42.3242 256.373 46.7271 258.917L193.205 343.486C193.488 343.649 193.776 343.807 194.068 343.96C198.679 346.365 204.634 347.546 210.853 347.546C218.84 347.546 227.262 345.599 233.838 341.802L374.479 260.604C374.783 260.429 375.082 260.249 375.374 260.069C381.045 256.55 384.094 252.215 384.401 248.03H384.427V263.035H384.372C384.13 266.348 382.187 269.754 378.575 272.775C378.11 273.163 377.614 273.549 377.094 273.925C376.287 274.505 375.415 275.068 374.479 275.609L233.838 356.807C227.26 360.604 218.84 362.552 210.853 362.552Z" fill="white"/>
</mask>
<g mask="url(#mask11_227_1037)">
<path d="M210.853 362.552C204.239 362.552 197.925 361.215 193.205 358.491L47.2661 274.232L46.7271 273.923C46.3151 273.683 45.9199 273.439 45.5462 273.187C41.366 270.384 39.4784 266.77 39.7514 263.035H39.7275V249.488C40.0149 253.029 42.3242 256.373 46.7271 258.917L193.205 343.486C193.488 343.649 193.776 343.807 194.068 343.96C198.679 346.365 204.634 347.546 210.853 347.546C218.84 347.546 227.262 345.599 233.838 341.802L374.479 260.604C374.783 260.429 375.082 260.249 375.374 260.069C381.045 256.55 384.094 252.215 384.401 248.03H384.427V263.035H384.372C384.13 266.348 382.187 269.754 378.575 272.775C378.11 273.163 377.614 273.549 377.094 273.925C376.287 274.505 375.415 275.068 374.479 275.609L233.838 356.807C227.26 360.604 218.84 362.552 210.853 362.552Z" fill="#F0E0C4"/>
</g>
<path d="M382.313 248.03V265.347H382.257C382.104 267.467 381.244 269.621 379.742 271.695C382.588 268.955 384.159 265.963 384.373 263.036H384.428V248.03H382.313Z" fill="#F0E0C4"/>
<mask id="mask12_227_1037" style="mask-type:luminance" maskUnits="userSpaceOnUse" x="42" y="241" width="343" height="107">
<path d="M210.856 347.546C204.637 347.546 198.682 346.365 194.071 343.96C198.68 346.362 204.633 347.532 210.849 347.534C211.35 347.534 211.85 347.524 212.351 347.51C212.339 347.51 212.327 347.51 212.313 347.51C219.856 347.292 227.661 345.371 233.841 341.801C227.265 345.598 218.843 347.546 210.856 347.546ZM210.849 347.443C205.311 347.107 200.124 345.809 196.1 343.485L49.6216 258.917C42.4302 254.765 40.8277 248.472 44.4832 242.687C45.1587 243.214 45.9085 243.717 46.7302 244.194L193.208 328.763C197.928 331.486 204.245 332.823 210.856 332.823C218.843 332.823 227.263 330.878 233.841 327.079L374.482 245.88C376.57 244.675 378.334 243.36 379.766 241.983C383.601 247.864 380.684 255.28 371.461 260.603L230.823 341.801C225.066 345.124 217.901 347.019 210.849 347.443ZM375.377 260.069C383.448 255.062 386.21 248.398 383.309 242.874C384.171 244.515 384.533 246.259 384.404 248.029C384.097 252.214 381.048 256.55 375.377 260.069Z" fill="white"/>
</mask>
<g mask="url(#mask12_227_1037)">
<path d="M210.856 347.546C204.637 347.546 198.682 346.365 194.071 343.96C198.68 346.362 204.633 347.532 210.849 347.534C211.35 347.534 211.85 347.524 212.351 347.51C212.339 347.51 212.327 347.51 212.313 347.51C219.856 347.292 227.661 345.371 233.841 341.801C227.265 345.598 218.843 347.546 210.856 347.546ZM210.849 347.443C205.311 347.107 200.124 345.809 196.1 343.485L49.6216 258.917C42.4302 254.765 40.8277 248.472 44.4832 242.687C45.1587 243.214 45.9085 243.717 46.7302 244.194L193.208 328.763C197.928 331.486 204.245 332.823 210.856 332.823C218.843 332.823 227.263 330.878 233.841 327.079L374.482 245.88C376.57 244.675 378.334 243.36 379.766 241.983C383.601 247.864 380.684 255.28 371.461 260.603L230.823 341.801C225.066 345.124 217.901 347.019 210.849 347.443ZM375.377 260.069C383.448 255.062 386.21 248.398 383.309 242.874C384.171 244.515 384.533 246.259 384.404 248.029C384.097 252.214 381.048 256.55 375.377 260.069Z" fill="#FDF5E9"/>
</g>
<path d="M196.099 343.486L49.6207 258.917C39.2074 252.904 40.5129 242.4 52.5384 235.458L193.176 154.26C199.347 150.698 207.135 148.776 214.669 148.551C206.277 148.309 197.249 150.24 190.285 154.26L49.6471 235.458C37.6216 242.4 36.316 252.904 46.7293 258.917L193.208 343.486C198.281 346.416 205.2 347.726 212.35 347.51C206.251 347.336 200.485 346.018 196.099 343.486Z" fill="#212121"/>
<path d="M377.398 237.144L230.917 152.576C225.824 149.634 218.865 148.324 211.679 148.551C217.768 148.733 223.522 150.048 227.899 152.576L374.377 237.144C384.792 243.157 383.485 253.661 371.459 260.604L230.821 341.802C224.679 345.347 216.929 347.268 209.427 347.51C217.828 347.757 226.868 345.829 233.839 341.802L374.48 260.604C386.505 253.661 387.811 243.157 377.398 237.144Z" fill="#212121"/>
<mask id="mask13_227_1037" style="mask-type:luminance" maskUnits="userSpaceOnUse" x="83" y="173" width="258" height="150">
<path d="M198.024 319.096L88.9703 256.135C81.2185 251.658 82.1911 243.839 91.1431 238.669L195.848 178.216C204.803 173.046 218.345 172.486 226.099 176.963L335.152 239.924C342.906 244.402 341.934 252.22 332.982 257.39L228.276 317.843C219.322 323.01 205.778 323.573 198.024 319.096Z" fill="white"/>
</mask>
<g mask="url(#mask13_227_1037)">
<path d="M198.024 319.096L88.9703 256.135C81.2185 251.658 82.1911 243.839 91.1431 238.669L195.848 178.216C204.803 173.046 218.345 172.486 226.099 176.963L335.152 239.924C342.906 244.402 341.934 252.22 332.982 257.39L228.276 317.843C219.322 323.01 205.778 323.573 198.024 319.096Z" fill="url(#paint2_linear_227_1037)"/>
</g>
<path d="M201.894 299.52L122.885 253.904C117.268 250.661 117.972 244.995 124.459 241.249L200.318 197.454C206.805 193.708 216.617 193.3 222.234 196.544L301.243 242.159C306.86 245.403 306.156 251.068 299.669 254.815L223.81 298.609C217.323 302.356 207.511 302.763 201.894 299.52Z" fill="#89D8EB"/>
<mask id="mask14_227_1037" style="mask-type:luminance" maskUnits="userSpaceOnUse" x="119" y="194" width="187" height="108">
<path d="M201.897 299.52L122.888 253.904C117.271 250.661 117.975 244.995 124.462 241.249L200.321 197.454C206.808 193.708 216.62 193.3 222.237 196.544L301.246 242.159C306.863 245.403 306.159 251.068 299.672 254.815L223.813 298.609C217.326 302.356 207.514 302.763 201.897 299.52Z" fill="white"/>
</mask>
<g mask="url(#mask14_227_1037)">
<path d="M124.426 247.419L200.314 203.605C206.803 199.858 216.618 199.454 222.238 202.697L301.277 248.329C302.523 249.05 303.409 249.903 304.039 250.813C305.934 247.718 305.117 244.374 301.277 242.156L222.238 196.524C216.618 193.28 206.803 193.688 200.314 197.432L124.426 241.246C119.377 244.161 117.88 248.226 120.091 251.422C120.967 249.989 122.374 248.605 124.426 247.419Z" fill="#4B75C3"/>
<path d="M124.427 254.862L200.314 211.051C206.804 207.304 216.618 206.897 222.238 210.14L301.278 255.775C302.267 256.345 302.988 257.009 303.59 257.708C306.1 254.424 305.418 250.72 301.278 248.33L222.238 202.698C216.618 199.454 206.804 199.859 200.314 203.606L124.427 247.419C119.08 250.507 117.732 254.879 120.542 258.146C121.437 256.973 122.719 255.849 124.427 254.862Z" fill="#57C6EF"/>
<path d="M121.308 266.395C122.137 265.53 123.133 264.694 124.427 263.949L200.314 220.135C206.804 216.388 216.618 215.981 222.238 219.227L301.278 264.859C301.877 265.204 302.368 265.59 302.823 265.987C306.155 262.511 305.777 258.372 301.278 255.775L222.238 210.141C216.618 206.897 206.804 207.304 200.314 211.051L124.427 254.863C118.63 258.211 117.487 263.079 121.308 266.395Z" fill="#62CCEF"/>
</g>
<mask id="mask15_227_1037" style="mask-type:luminance" maskUnits="userSpaceOnUse" x="39" y="218" width="346" height="115">
<path d="M210.853 332.823C204.242 332.823 197.924 331.487 193.205 328.763L46.7271 244.194C45.9054 243.717 45.1556 243.214 44.4801 242.687C43.8309 242.182 43.2488 241.653 42.7338 241.104C40.5251 238.756 39.5501 236.064 39.7514 233.309H39.7274V219.76C39.8472 221.221 40.3095 222.647 41.1192 224C42.2762 225.924 44.1399 227.694 46.7271 229.189L85.9775 251.848L193.205 313.757C193.692 314.038 194.192 314.304 194.707 314.553C199.225 316.742 204.919 317.818 210.853 317.818C218.84 317.818 227.262 315.87 233.838 312.073L374.478 230.875C374.783 230.7 375.082 230.521 375.374 230.341C381.045 226.824 384.094 222.486 384.401 218.303H384.427V233.309H384.372C384.204 235.621 383.205 237.98 381.387 240.222C380.903 240.819 380.362 241.406 379.763 241.983C378.33 243.361 376.567 244.676 374.478 245.881L233.838 327.079C227.26 330.878 218.84 332.823 210.853 332.823Z" fill="white"/>
</mask>
<g mask="url(#mask15_227_1037)">
<path d="M210.853 332.823C204.242 332.823 197.924 331.487 193.205 328.763L46.7271 244.194C45.9054 243.717 45.1556 243.214 44.4801 242.687C43.8309 242.182 43.2488 241.653 42.7338 241.104C40.5251 238.756 39.5501 236.064 39.7514 233.309H39.7274V219.76C39.8472 221.221 40.3095 222.647 41.1192 224C42.2762 225.924 44.1399 227.694 46.7271 229.189L85.9775 251.848L193.205 313.757C193.692 314.038 194.192 314.304 194.707 314.553C199.225 316.742 204.919 317.818 210.853 317.818C218.84 317.818 227.262 315.87 233.838 312.073L374.478 230.875C374.783 230.7 375.082 230.521 375.374 230.341C381.045 226.824 384.094 222.486 384.401 218.303H384.427V233.309H384.372C384.204 235.621 383.205 237.98 381.387 240.222C380.903 240.819 380.362 241.406 379.763 241.983C378.33 243.361 376.567 244.676 374.478 245.881L233.838 327.079C227.26 330.878 218.84 332.823 210.853 332.823Z" fill="#F0E0C4"/>
</g>
<path d="M382.313 218.304V235.621H382.257C382.104 237.738 381.244 239.892 379.742 241.969C382.588 239.226 384.159 236.234 384.373 233.309H384.428V218.304H382.313Z" fill="#F0E0C4"/>
<mask id="mask16_227_1037" style="mask-type:luminance" maskUnits="userSpaceOnUse" x="41" y="167" width="344" height="151">
<path d="M210.855 317.816C204.921 317.816 199.227 316.741 194.709 314.551C199.222 316.736 204.914 317.804 210.845 317.804C211.346 317.804 211.847 317.797 212.35 317.78C212.338 317.78 212.326 317.78 212.311 317.78C219.855 317.563 227.66 315.641 233.84 312.072C227.264 315.869 218.842 317.816 210.855 317.816ZM210.848 317.713C205.309 317.38 200.123 316.08 196.099 313.756L49.6204 229.187C39.2071 223.175 40.5126 212.67 52.5381 205.728L119.093 167.302V192.804L91.1442 208.94C82.1921 214.11 81.2196 221.929 88.9714 226.406L198.025 289.367C201.539 291.396 206.239 292.39 211.164 292.39C217.11 292.39 223.379 290.941 228.278 288.114L332.983 227.661C341.935 222.492 342.908 214.673 335.153 210.196L304.778 192.658V167.232L374.377 207.414C384.793 213.43 383.485 223.932 371.46 230.874L230.822 312.072C225.065 315.395 217.9 317.292 210.848 317.713ZM375.376 230.34C384.233 224.847 386.695 217.358 382.302 211.568C383.88 213.65 384.575 215.952 384.403 218.302C384.096 222.485 381.047 226.823 375.376 230.34Z" fill="white"/>
</mask>
<g mask="url(#mask16_227_1037)">
<path d="M210.855 317.816C204.921 317.816 199.227 316.741 194.709 314.551C199.222 316.736 204.914 317.804 210.845 317.804C211.346 317.804 211.847 317.797 212.35 317.78C212.338 317.78 212.326 317.78 212.311 317.78C219.855 317.563 227.66 315.641 233.84 312.072C227.264 315.869 218.842 317.816 210.855 317.816ZM210.848 317.713C205.309 317.38 200.123 316.08 196.099 313.756L49.6204 229.187C39.2071 223.175 40.5126 212.67 52.5381 205.728L119.093 167.302V192.804L91.1442 208.94C82.1921 214.11 81.2196 221.929 88.9714 226.406L198.025 289.367C201.539 291.396 206.239 292.39 211.164 292.39C217.11 292.39 223.379 290.941 228.278 288.114L332.983 227.661C341.935 222.492 342.908 214.673 335.153 210.196L304.778 192.658V167.232L374.377 207.414C384.793 213.43 383.485 223.932 371.46 230.874L230.822 312.072C225.065 315.395 217.9 317.292 210.848 317.713ZM375.376 230.34C384.233 224.847 386.695 217.358 382.302 211.568C383.88 213.65 384.575 215.952 384.403 218.302C384.096 222.485 381.047 226.823 375.376 230.34Z" fill="#FDF5E9"/>
</g>
<path d="M196.099 313.757L49.6207 229.189C39.2074 223.176 40.5129 212.672 52.5384 205.729L193.176 124.531C199.347 120.969 207.135 119.05 214.669 118.823C206.277 118.581 197.249 120.512 190.285 124.531L49.6471 205.729C37.6216 212.672 36.316 223.176 46.7293 229.189L193.208 313.757C198.281 316.687 205.2 317.997 212.35 317.782C206.251 317.607 200.485 316.289 196.099 313.757Z" fill="#212121"/>
<path d="M377.398 207.416L230.917 122.847C225.824 119.905 218.865 118.595 211.679 118.825C217.768 119.005 223.522 120.32 227.899 122.847L374.377 207.416C384.792 213.431 383.485 223.933 371.459 230.875L230.821 312.073C224.679 315.621 216.929 317.54 209.427 317.782C217.828 318.028 226.868 316.1 233.839 312.073L374.48 230.875C386.505 223.933 387.811 213.431 377.398 207.416Z" fill="#212121"/>
<mask id="mask17_227_1037" style="mask-type:luminance" maskUnits="userSpaceOnUse" x="83" y="192" width="258" height="101">
<path d="M211.163 292.392C206.238 292.392 201.538 291.397 198.024 289.368L88.9703 226.407C81.2185 221.93 82.1911 214.111 91.1431 208.942L119.091 192.805V217.836H119.161C119.017 218.72 119.096 219.594 119.405 220.433C119.896 221.861 121.041 223.18 122.879 224.239L201.777 269.792C204.319 271.261 207.721 271.979 211.283 271.979C211.297 271.979 211.311 271.979 211.323 271.979C211.352 271.979 211.381 271.979 211.41 271.979C215.717 271.979 220.261 270.93 223.809 268.882L291.772 229.644L299.639 225.102L299.667 225.085C301.728 223.894 303.206 222.51 304.082 221.072C305.041 219.499 305.28 217.86 304.777 216.337V192.659L335.152 210.197C342.906 214.674 341.934 222.493 332.982 227.663L228.276 288.116C223.378 290.942 217.109 292.392 211.163 292.392Z" fill="white"/>
</mask>
<g mask="url(#mask17_227_1037)">
<path d="M211.163 292.392C206.238 292.392 201.538 291.397 198.024 289.368L88.9703 226.407C81.2185 221.93 82.1911 214.111 91.1431 208.942L119.091 192.805V217.836H119.161C119.017 218.72 119.096 219.594 119.405 220.433C119.896 221.861 121.041 223.18 122.879 224.239L201.777 269.792C204.319 271.261 207.721 271.979 211.283 271.979C211.297 271.979 211.311 271.979 211.323 271.979C211.352 271.979 211.381 271.979 211.41 271.979C215.717 271.979 220.261 270.93 223.809 268.882L291.772 229.644L299.639 225.102L299.667 225.085C301.728 223.894 303.206 222.51 304.082 221.072C305.041 219.499 305.28 217.86 304.777 216.337V192.659L335.152 210.197C342.906 214.674 341.934 222.493 332.982 227.663L228.276 288.116C223.378 290.942 217.109 292.392 211.163 292.392Z" fill="#F0E0C4"/>
</g>
<path d="M201.894 269.79L122.885 224.175C117.268 220.931 117.972 215.266 124.459 211.521L200.318 167.724C206.805 163.978 216.617 163.573 222.234 166.814L301.243 212.432C306.86 215.673 306.156 221.338 299.669 225.085L223.81 268.882C217.323 272.626 207.511 273.033 201.894 269.79Z" fill="#89D8EB"/>
<mask id="mask18_227_1037" style="mask-type:luminance" maskUnits="userSpaceOnUse" x="119" y="164" width="187" height="108">
<path d="M201.897 269.789L122.888 224.174C117.271 220.93 117.975 215.265 124.462 211.521L200.321 167.723C206.808 163.977 216.62 163.572 222.237 166.813L301.246 212.431C306.863 215.672 306.159 221.337 299.672 225.084L223.813 268.881C217.326 272.625 207.514 273.032 201.897 269.789Z" fill="white"/>
</mask>
<g mask="url(#mask18_227_1037)">
<path d="M124.426 217.688L200.314 173.876C206.803 170.129 216.618 169.722 222.238 172.966L301.277 218.6C302.523 219.319 303.409 220.172 304.039 221.082C305.934 217.987 305.117 214.643 301.277 212.427L222.238 166.793C216.618 163.549 206.803 163.956 200.314 167.703L124.426 211.514C119.377 214.432 117.88 218.497 120.091 221.69C120.967 220.258 122.374 218.873 124.426 217.688Z" fill="#4B75C3"/>
<path d="M124.427 225.133L200.314 181.319C206.804 177.573 216.618 177.165 222.238 180.409L301.278 226.043C302.267 226.614 302.988 227.28 303.59 227.977C306.1 224.692 305.418 220.989 301.278 218.601L222.238 172.966C216.618 169.723 206.804 170.13 200.314 173.876L124.427 217.688C119.08 220.776 117.732 225.15 120.542 228.415C121.437 227.241 122.719 226.118 124.427 225.133Z" fill="#57C6EF"/>
<path d="M121.308 236.663C122.137 235.798 123.133 234.965 124.427 234.217L200.314 190.403C206.804 186.657 216.618 186.25 222.238 189.496L301.278 235.128C301.877 235.473 302.368 235.858 302.823 236.256C306.155 232.78 305.777 228.641 301.278 226.044L222.238 180.409C216.618 177.166 206.804 177.573 200.314 181.32L124.427 225.134C118.63 228.48 117.487 233.348 121.308 236.663Z" fill="#62CCEF"/>
</g>
<mask id="mask19_227_1037" style="mask-type:luminance" maskUnits="userSpaceOnUse" x="57" y="325" width="132" height="233">
<path d="M182.481 556.879L63.506 488.19C60.3008 486.338 57.7041 481.375 57.7041 477.104V331.014C57.7041 326.74 60.3008 324.778 63.506 326.627L182.481 395.319C185.687 397.168 188.283 402.131 188.283 406.403V552.493C188.283 556.766 185.687 558.731 182.481 556.879Z" fill="white"/>
</mask>
<g mask="url(#mask19_227_1037)">
<path d="M182.481 556.879L63.506 488.19C60.3008 486.338 57.7041 481.375 57.7041 477.104V331.014C57.7041 326.74 60.3008 324.778 63.506 326.627L182.481 395.319C185.687 397.168 188.283 402.131 188.283 406.403V552.493C188.283 556.766 185.687 558.731 182.481 556.879Z" fill="#F0E0C4"/>
</g>
<path d="M184.607 555.982L65.6318 487.29C62.429 485.441 59.8299 480.478 59.8299 476.206V330.116C59.8299 328.202 60.3713 326.786 61.2337 325.934C59.1591 325.917 57.7051 327.819 57.7051 331.014V477.105C57.7051 481.376 60.3018 486.339 63.507 488.191L182.482 556.88C184.253 557.903 185.819 557.728 186.883 556.676C186.183 556.669 185.415 556.449 184.607 555.982Z" fill="#212121"/>
<path d="M164.998 523.046L80.9879 474.544C78.7265 473.236 76.8916 469.731 76.8916 466.715V363.56C76.8916 360.544 78.7265 359.157 80.9879 360.462L164.998 408.967C167.262 410.272 169.095 413.777 169.095 416.793V519.948C169.095 522.967 167.262 524.354 164.998 523.046Z" fill="#89D8EB"/>
<path d="M86.7707 470.687C84.5093 469.381 82.6743 465.877 82.6743 462.861V361.435L80.9879 360.462C78.7265 359.157 76.8916 360.544 76.8916 363.56V466.715C76.8916 469.731 78.7265 473.236 80.9879 474.544L164.998 523.046C167.262 524.354 169.095 522.967 169.095 519.948V518.216L86.7707 470.687Z" fill="#212121"/>
<path d="M109.14 404.806L92.0098 394.915V392.006L109.14 401.898V404.806Z" fill="#4B75C3"/>
<path d="M122.744 412.66L114.18 407.716V404.805L122.744 409.752V412.66Z" fill="#62CCEF"/>
<path d="M135.783 420.188L127.217 415.244V412.336L135.783 417.28V420.188Z" fill="#4B75C3"/>
<path d="M148.818 427.716L140.254 422.769V419.861L148.818 424.805V427.716Z" fill="#4B75C3"/>
<path d="M109.14 411.789L92.0098 401.898V398.987L109.14 408.878V411.789Z" fill="#4B75C3"/>
<path d="M122.744 419.644L114.18 414.697V411.789L122.744 416.733V419.644Z" fill="#62CCEF"/>
<path d="M135.783 427.171L127.217 422.224V419.316L135.783 424.26V427.171Z" fill="#4B75C3"/>
<path d="M148.818 434.697L140.254 429.753V426.842L148.818 431.789V434.697Z" fill="#4B75C3"/>
<path d="M109.14 418.77L92.0098 408.878V405.97L109.14 415.861V418.77Z" fill="#4B75C3"/>
<path d="M129.295 427.497L127.216 426.297L114.18 418.77V421.68L127.216 429.207L129.295 430.407L135.782 434.151V431.243L129.295 427.497Z" fill="#4B75C3"/>
<path d="M148.818 441.678L140.254 436.733V433.825L148.818 438.77V441.678Z" fill="#4B75C3"/>
<path d="M153.291 427.388V444.259L161.857 449.206V432.332L153.291 427.388Z" fill="#4B75C3"/>
<path d="M109.14 425.753L92.0098 415.862V412.951L109.14 422.842V425.753Z" fill="#62CCEF"/>
<path d="M122.744 433.605L114.18 428.661V425.753L122.744 430.697V433.605Z" fill="#4B75C3"/>
<path d="M135.783 438.223L133.495 436.903L127.217 433.279V436.187L133.495 439.811L135.783 441.133L148.82 448.66V445.75L135.783 438.223Z" fill="#4B75C3"/>
<path d="M161.857 456.188L153.291 451.243V448.333L161.857 453.279V456.188Z" fill="#4B75C3"/>
<path d="M109.14 446.696L92.0098 436.805V433.897L109.14 443.788V446.696Z" fill="#4B75C3"/>
<path d="M122.744 454.551L114.18 449.604V446.696L122.744 451.64V454.551Z" fill="#4B75C3"/>
<path d="M135.783 459.171L133.495 457.848L127.217 454.224V457.134L133.495 460.756L135.783 462.079L148.82 469.605V466.697L135.783 459.171Z" fill="#4B75C3"/>
<path d="M161.857 477.131L153.291 472.187V469.278L161.857 474.223V477.131Z" fill="#4B75C3"/>
<path d="M109.14 453.679L92.0098 443.788V440.877L109.14 450.768V453.679Z" fill="#4B75C3"/>
<path d="M122.744 461.531L114.18 456.587V453.679L122.744 458.623V461.531Z" fill="#4B75C3"/>
<path d="M161.857 484.113L153.291 479.169V476.258L161.857 481.205V484.113Z" fill="#4B75C3"/>
<path d="M109.14 460.66L92.0098 450.769V447.861L109.14 457.752V460.66Z" fill="#4B75C3"/>
<path d="M122.744 468.515L114.18 463.568V460.66L122.744 465.606V468.515Z" fill="#4B75C3"/>
<path d="M135.783 466.151L133.495 464.831L127.217 461.206V471.097L133.495 474.722L135.783 476.042L148.82 483.568V476.588V475.713V473.677L135.783 466.151Z" fill="#62CCEF"/>
<path d="M161.857 491.097L153.291 486.15V483.242L161.857 488.186V491.097Z" fill="#4B75C3"/>
<path d="M109.14 432.732L92.0098 422.841V419.933L109.14 429.824V432.732Z" fill="#4B75C3"/>
<path d="M122.744 440.588L114.18 435.641V432.733L122.744 437.68V440.588Z" fill="#62CCEF"/>
<path d="M148.818 455.642L140.254 450.697V447.789L148.818 452.733V455.642Z" fill="#4B75C3"/>
<path d="M161.857 463.168L153.291 458.224V455.315L161.857 460.26V463.168Z" fill="#4B75C3"/>
<path d="M109.14 439.713L92.0098 429.824V426.914L109.14 436.805V439.713Z" fill="#4B75C3"/>
<path d="M122.744 447.567L114.18 442.623V439.715L122.744 444.659V447.567Z" fill="#4B75C3"/>
<path d="M127.217 440.26V450.151L135.783 455.096V445.207L127.217 440.26Z" fill="#62CCEF"/>
<path d="M148.818 462.623L140.254 457.676V454.768L148.818 459.712V462.623Z" fill="#4B75C3"/>
<path d="M161.857 470.15L153.291 465.204V462.296L161.857 467.242V470.15Z" fill="#4B75C3"/>
<mask id="mask20_227_1037" style="mask-type:luminance" maskUnits="userSpaceOnUse" x="233" y="337" width="129" height="218">
<path d="M237.404 554.601C236.781 554.601 236.194 554.447 235.662 554.141C234.247 553.324 233.435 551.494 233.435 549.124V416.859C233.435 412.607 236.05 407.634 239.265 405.779L355.515 338.66C356.379 338.161 357.232 337.912 358.03 337.912C358.653 337.912 359.24 338.066 359.771 338.37C361.185 339.187 361.999 341.017 361.999 343.386V475.652C361.999 479.906 359.386 484.877 356.171 486.733L239.922 553.851C239.057 554.349 238.204 554.601 237.404 554.601ZM358.023 339.218C357.457 339.218 356.832 339.409 356.171 339.793L239.922 406.913C237.064 408.558 234.74 413.021 234.74 416.859V549.124C234.74 551.015 235.317 552.43 236.319 553.01C236.647 553.199 237.013 553.293 237.411 553.293C237.976 553.293 238.602 553.101 239.265 552.72L355.515 485.6C358.37 483.955 360.694 479.489 360.694 475.652V343.386C360.694 341.496 360.116 340.08 359.115 339.503C358.787 339.314 358.42 339.218 358.023 339.218Z" fill="white"/>
</mask>
<g mask="url(#mask20_227_1037)">
<path d="M237.404 554.601C236.781 554.601 236.194 554.447 235.662 554.141C234.247 553.324 233.435 551.494 233.435 549.124V416.859C233.435 412.607 236.05 407.634 239.265 405.779L355.515 338.66C356.379 338.161 357.232 337.912 358.03 337.912C358.653 337.912 359.24 338.066 359.771 338.37C361.185 339.187 361.999 341.017 361.999 343.386V475.652C361.999 479.906 359.386 484.877 356.171 486.733L239.922 553.851C239.057 554.349 238.204 554.601 237.404 554.601ZM358.023 339.218C357.457 339.218 356.832 339.409 356.171 339.793L239.922 406.913C237.064 408.558 234.74 413.021 234.74 416.859V549.124C234.74 551.015 235.317 552.43 236.319 553.01C236.647 553.199 237.013 553.293 237.411 553.293C237.976 553.293 238.602 553.101 239.265 552.72L355.515 485.6C358.37 483.955 360.694 479.489 360.694 475.652V343.386C360.694 341.496 360.116 340.08 359.115 339.503C358.787 339.314 358.42 339.218 358.023 339.218Z" fill="#212121"/>
</g>
<mask id="mask21_227_1037" style="mask-type:luminance" maskUnits="userSpaceOnUse" x="119" y="118" width="186" height="75">
<path d="M119.096 192.805V167.302L193.179 124.53C198.938 121.205 206.108 119.313 213.16 118.889C218.699 119.224 223.88 120.525 227.902 122.846L304.781 167.233V192.659L226.103 147.235C222.591 145.206 217.891 144.214 212.966 144.214C207.021 144.214 200.749 145.661 195.853 148.49L119.096 192.805ZM190.288 124.53C196.866 120.733 205.289 118.786 213.273 118.786C219.733 118.786 225.907 120.06 230.588 122.657C225.909 120.063 219.738 118.798 213.282 118.798C212.751 118.798 212.216 118.805 211.682 118.824C211.701 118.824 211.718 118.824 211.735 118.824C204.218 119.054 196.447 120.975 190.288 124.53Z" fill="white"/>
</mask>
<g mask="url(#mask21_227_1037)">
<rect x="117.571" y="116.746" width="188.814" height="78.3811" fill="#FDF5E9"/>
</g>
<mask id="mask22_227_1037" style="mask-type:luminance" maskUnits="userSpaceOnUse" x="119" y="118" width="95" height="50">
<path d="M119.096 167.303V165.635L190.288 124.531C196.447 120.976 204.218 119.055 211.735 118.825C212.214 118.839 212.688 118.861 213.16 118.889C206.108 119.313 198.938 121.206 193.179 124.531L119.096 167.303Z" fill="white"/>
</mask>
<g mask="url(#mask22_227_1037)">
<path d="M119.096 167.303V165.635L190.288 124.531C196.447 120.976 204.218 119.055 211.735 118.825C212.214 118.839 212.688 118.861 213.16 118.889C206.108 119.313 198.938 121.206 193.179 124.531L119.096 167.303Z" fill="#212121"/>
</g>
<mask id="mask23_227_1037" style="mask-type:luminance" maskUnits="userSpaceOnUse" x="211" y="118" width="94" height="50">
<path d="M304.777 167.233L227.898 122.847C223.876 120.526 218.694 119.225 213.156 118.89C212.684 118.861 212.21 118.839 211.73 118.825C211.714 118.825 211.697 118.825 211.678 118.825C212.212 118.806 212.746 118.799 213.278 118.799C219.734 118.799 225.905 120.063 230.583 122.658C230.696 122.72 230.806 122.782 230.916 122.847L304.777 165.489V167.233Z" fill="white"/>
</mask>
<g mask="url(#mask23_227_1037)">
<path d="M304.777 167.233L227.898 122.847C223.876 120.526 218.694 119.225 213.156 118.89C212.684 118.861 212.21 118.839 211.73 118.825C211.714 118.825 211.697 118.825 211.678 118.825C212.212 118.806 212.746 118.799 213.278 118.799C219.734 118.799 225.905 120.063 230.583 122.658C230.696 122.72 230.806 122.782 230.916 122.847L304.777 165.489V167.233Z" fill="#212121"/>
</g>
<mask id="mask24_227_1037" style="mask-type:luminance" maskUnits="userSpaceOnUse" x="119" y="144" width="186" height="128">
<path d="M211.287 271.979C207.725 271.979 204.323 271.26 201.782 269.791L122.883 224.238C121.046 223.18 119.901 221.86 119.41 220.432C119.565 220.856 119.781 221.27 120.052 221.668C120.682 222.593 121.625 223.446 122.888 224.174L124.49 225.098L132.357 229.64L201.897 269.789C204.421 271.246 207.792 271.967 211.328 271.979C211.316 271.979 211.301 271.979 211.287 271.979ZM119.165 217.835H119.096V192.804L195.853 148.49C200.749 145.661 207.021 144.214 212.966 144.214C217.891 144.214 222.591 145.206 226.103 147.235L304.781 192.658V216.336C304.297 214.872 303.124 213.516 301.246 212.431L222.237 166.813C219.69 165.345 216.286 164.624 212.717 164.624C208.41 164.624 203.868 165.675 200.32 167.724L124.462 211.521C121.312 213.339 119.525 215.607 119.165 217.835Z" fill="white"/>
</mask>
<g mask="url(#mask24_227_1037)">
<rect x="117.571" y="141.896" width="188.814" height="131.322" fill="#F0E0C4"/>
</g>
<mask id="mask25_227_1037" style="mask-type:luminance" maskUnits="userSpaceOnUse" x="119" y="170" width="183" height="102">
<path d="M211.325 271.979C207.789 271.967 204.419 271.246 201.894 269.789L132.355 229.64L200.313 190.404C203.861 188.356 208.407 187.304 212.715 187.304C216.284 187.304 219.693 188.025 222.237 189.496L291.704 229.602L223.667 268.884C220.134 270.925 215.616 271.971 211.325 271.979ZM120.049 221.668C119.778 221.27 119.563 220.856 119.407 220.432C119.34 220.238 119.285 220.041 119.244 219.845C119.395 220.465 119.668 221.072 120.061 221.651C120.059 221.656 120.054 221.663 120.049 221.668ZM222.11 172.895C219.583 171.475 216.231 170.778 212.727 170.778C216.231 170.778 219.58 171.475 222.11 172.895Z" fill="white"/>
</mask>
<g mask="url(#mask25_227_1037)">
<path d="M211.325 271.979C207.789 271.967 204.419 271.246 201.894 269.789L132.355 229.64L200.313 190.404C203.861 188.356 208.407 187.304 212.715 187.304C216.284 187.304 219.693 188.025 222.237 189.496L291.704 229.602L223.667 268.884C220.134 270.925 215.616 271.971 211.325 271.979ZM120.049 221.668C119.778 221.27 119.563 220.856 119.407 220.432C119.34 220.238 119.285 220.041 119.244 219.845C119.395 220.465 119.668 221.072 120.061 221.651C120.059 221.656 120.054 221.663 120.049 221.668ZM222.11 172.895C219.583 171.475 216.231 170.778 212.727 170.778C216.231 170.778 219.58 171.475 222.11 172.895Z" fill="url(#paint3_linear_227_1037)"/>
</g>
<mask id="mask26_227_1037" style="mask-type:luminance" maskUnits="userSpaceOnUse" x="119" y="164" width="186" height="58">
<path d="M120.06 221.653C119.667 221.074 119.394 220.468 119.243 219.847C119.099 219.191 119.092 218.515 119.21 217.837H119.162C119.521 215.609 121.308 213.341 124.458 211.523L200.317 167.726C203.865 165.677 208.407 164.626 212.714 164.626C216.283 164.626 219.687 165.347 222.233 166.815L301.242 212.433C303.12 213.518 304.294 214.874 304.778 216.338V217.837H304.704C304.737 218.841 304.483 219.869 303.939 220.872C303.324 220.048 302.449 219.287 301.312 218.623C301.3 218.616 301.288 218.609 301.276 218.604L222.236 172.969C222.195 172.945 222.152 172.921 222.109 172.897C219.579 171.477 216.23 170.78 212.726 170.78C212.721 170.78 212.718 170.78 212.714 170.78C212.709 170.78 212.704 170.78 212.697 170.78C208.428 170.782 203.927 171.815 200.396 173.832C200.367 173.846 200.341 173.863 200.312 173.88L124.425 217.691C122.386 218.87 120.927 220.233 120.06 221.653Z" fill="white"/>
</mask>
<g mask="url(#mask26_227_1037)">
<path d="M120.06 221.653C119.667 221.074 119.394 220.468 119.243 219.847C119.099 219.191 119.092 218.515 119.21 217.837H119.162C119.521 215.609 121.308 213.341 124.458 211.523L200.317 167.726C203.865 165.677 208.407 164.626 212.714 164.626C216.283 164.626 219.687 165.347 222.233 166.815L301.242 212.433C303.12 213.518 304.294 214.874 304.778 216.338V217.837H304.704C304.737 218.841 304.483 219.869 303.939 220.872C303.324 220.048 302.449 219.287 301.312 218.623C301.3 218.616 301.288 218.609 301.276 218.604L222.236 172.969C222.195 172.945 222.152 172.921 222.109 172.897C219.579 171.477 216.23 170.78 212.726 170.78C212.721 170.78 212.718 170.78 212.714 170.78C212.709 170.78 212.704 170.78 212.697 170.78C208.428 170.782 203.927 171.815 200.396 173.832C200.367 173.846 200.341 173.863 200.312 173.88L124.425 217.691C122.386 218.87 120.927 220.233 120.06 221.653Z" fill="url(#paint4_linear_227_1037)"/>
</g>
<mask id="mask27_227_1037" style="mask-type:luminance" maskUnits="userSpaceOnUse" x="120" y="170" width="184" height="56">
<path d="M124.488 225.1L122.885 224.175C121.623 223.447 120.679 222.594 120.049 221.669C120.054 221.664 120.058 221.657 120.061 221.652C120.928 220.232 122.387 218.869 124.425 217.69L200.313 173.879C200.342 173.862 200.368 173.845 200.397 173.831C203.928 171.814 208.429 170.781 212.698 170.779C212.705 170.779 212.71 170.779 212.714 170.779C212.719 170.779 212.722 170.779 212.726 170.779C216.231 170.779 219.582 171.476 222.11 172.897C222.153 172.921 222.196 172.945 222.237 172.969L301.276 218.603C301.288 218.608 301.3 218.615 301.312 218.622C302.45 219.286 303.325 220.048 303.94 220.872C303.131 222.369 301.679 223.816 299.571 225.061L222.237 180.411C219.695 178.943 216.291 178.224 212.726 178.222C212.722 178.222 212.719 178.222 212.714 178.222C212.71 178.222 212.705 178.222 212.698 178.222C208.414 178.224 203.901 179.264 200.363 181.293C200.346 181.303 200.33 181.312 200.313 181.322L124.488 225.1Z" fill="white"/>
</mask>
<g mask="url(#mask27_227_1037)">
<path d="M124.488 225.1L122.885 224.175C121.623 223.447 120.679 222.594 120.049 221.669C120.054 221.664 120.058 221.657 120.061 221.652C120.928 220.232 122.387 218.869 124.425 217.69L200.313 173.879C200.342 173.862 200.368 173.845 200.397 173.831C203.928 171.814 208.429 170.781 212.698 170.779C212.705 170.779 212.71 170.779 212.714 170.779C212.719 170.779 212.722 170.779 212.726 170.779C216.231 170.779 219.582 171.476 222.11 172.897C222.153 172.921 222.196 172.945 222.237 172.969L301.276 218.603C301.288 218.608 301.3 218.615 301.312 218.622C302.45 219.286 303.325 220.048 303.94 220.872C303.131 222.369 301.679 223.816 299.571 225.061L222.237 180.411C219.695 178.943 216.291 178.224 212.726 178.222C212.722 178.222 212.719 178.222 212.714 178.222C212.71 178.222 212.705 178.222 212.698 178.222C208.414 178.224 203.901 179.264 200.363 181.293C200.346 181.303 200.33 181.312 200.313 181.322L124.488 225.1Z" fill="url(#paint5_linear_227_1037)"/>
</g>
<mask id="mask28_227_1037" style="mask-type:luminance" maskUnits="userSpaceOnUse" x="124" y="178" width="176" height="52">
<path d="M132.355 229.642L124.488 225.1L200.313 181.322C200.33 181.312 200.347 181.303 200.364 181.293C203.902 179.264 208.415 178.224 212.698 178.222C212.705 178.222 212.71 178.222 212.715 178.222C212.72 178.222 212.722 178.222 212.727 178.222C216.291 178.224 219.695 178.943 222.237 180.411L299.571 225.061C299.521 225.09 299.471 225.121 299.42 225.15L291.705 229.603L222.237 189.498C219.693 188.027 216.284 187.306 212.715 187.306C208.408 187.306 203.861 188.357 200.313 190.406L132.355 229.642Z" fill="white"/>
</mask>
<g mask="url(#mask28_227_1037)">
<path d="M132.355 229.642L124.488 225.1L200.313 181.322C200.33 181.312 200.347 181.303 200.364 181.293C203.902 179.264 208.415 178.224 212.698 178.222C212.705 178.222 212.71 178.222 212.715 178.222C212.72 178.222 212.722 178.222 212.727 178.222C216.291 178.224 219.695 178.943 222.237 180.411L299.571 225.061C299.521 225.09 299.471 225.121 299.42 225.15L291.705 229.603L222.237 189.498C219.693 188.027 216.284 187.306 212.715 187.306C208.408 187.306 203.861 188.357 200.313 190.406L132.355 229.642Z" fill="url(#paint6_linear_227_1037)"/>
</g>
<defs>
<radialGradient id="paint0_radial_227_1037" cx="0" cy="0" r="1" gradientUnits="userSpaceOnUse" gradientTransform="translate(-107.307 30.0455) scale(1033.96 1004.37)">
<stop stop-color="#8FDAEB"/>
<stop offset="1" stop-color="#8FDAEB"/>
</radialGradient>
<linearGradient id="paint1_linear_227_1037" x1="81.6449" y1="282.926" x2="322.362" y2="342.489" gradientUnits="userSpaceOnUse">
<stop stop-color="#59268C"/>
<stop offset="1" stop-color="#2D429F"/>
</linearGradient>
<linearGradient id="paint2_linear_227_1037" x1="81.6449" y1="248.031" x2="322.362" y2="307.593" gradientUnits="userSpaceOnUse">
<stop stop-color="#59268C"/>
<stop offset="1" stop-color="#2D429F"/>
</linearGradient>
<linearGradient id="paint3_linear_227_1037" x1="211.936" y1="271.979" x2="211.936" y2="-0.000557321" gradientUnits="userSpaceOnUse">
<stop stop-color="#89D8EB"/>
<stop offset="1" stop-color="#89D8EB"/>
</linearGradient>
<linearGradient id="paint4_linear_227_1037" x1="211.935" y1="271.981" x2="211.935" y2="0.00144034" gradientUnits="userSpaceOnUse">
<stop stop-color="#89D8EB"/>
<stop offset="1" stop-color="#4B76C3"/>
</linearGradient>
<linearGradient id="paint5_linear_227_1037" x1="211.936" y1="271.98" x2="211.936" y2="0.000633017" gradientUnits="userSpaceOnUse">
<stop stop-color="#89D8EB"/>
<stop offset="1" stop-color="#57C5EF"/>
</linearGradient>
<linearGradient id="paint6_linear_227_1037" x1="211.936" y1="271.98" x2="211.936" y2="0.00082734" gradientUnits="userSpaceOnUse">
<stop stop-color="#89D8EC"/>
<stop offset="1" stop-color="#62CCEF"/>
</linearGradient>
</defs>
</svg>
