<svg width="815" height="1188" viewBox="0 0 815 1188" fill="none" xmlns="http://www.w3.org/2000/svg">
<path d="M0 0H731L809.148 1111.86C810.591 1132.39 783.822 1141.45 772.498 1124.27L729.67 1059.28C719.276 1043.51 706.699 1029.29 692.316 1017.04L616.5 952.5L569.302 913.759C524.59 877.06 472.73 850.067 417.021 834.498V834.498C303.471 802.764 227.5 696.044 234.683 578.363L243.979 426.087C251.273 306.601 204.668 190.128 116.963 108.654L0 0Z" fill="#EEC12D"/>
<circle cx="529" cy="388" r="238" stroke="#D8A601" stroke-opacity="0.2" stroke-width="8"/>
<circle cx="529" cy="388" r="218" stroke="#D8A601" stroke-opacity="0.2" stroke-width="8"/>
<path d="M630.934 395.711C623.808 386.511 613.053 380.162 598.8 376.793C617.07 367.464 625.103 351.656 622.901 329.37C622.123 321.337 619.92 314.21 616.163 308.38C612.405 302.419 607.352 297.625 601.003 293.997C594.654 290.369 587.657 287.648 580.272 285.705C572.756 283.761 564.205 282.465 554.487 281.558V235.301H526.24V280.392C521.317 280.392 513.801 280.522 503.824 280.781V235.301H475.448V281.558C471.432 281.688 465.471 281.688 457.567 281.688L418.566 281.558V311.748H438.909C448.238 311.748 453.68 315.895 455.235 324.187V376.923C456.401 376.923 457.438 376.923 458.215 377.052H455.235V450.908C454.328 457.128 450.7 460.237 444.61 460.237H424.268L418.566 493.926H455.365C457.697 493.926 461.066 493.926 465.471 494.055C469.877 494.055 473.116 494.185 475.448 494.185V541.09H503.695V494.833C508.878 494.962 516.263 494.962 526.111 494.962V541.09H554.357V494.185C564.464 493.667 573.275 492.76 581.049 491.464C588.823 490.168 596.338 487.966 603.335 485.115C610.462 482.264 616.422 478.636 621.216 474.361C626.01 470.085 629.897 464.643 633.137 458.035C636.246 451.426 638.32 443.782 639.097 435.1C640.781 417.997 637.931 404.91 630.934 395.711ZM504.343 313.822C505.12 313.822 507.582 313.822 511.599 313.692C515.615 313.692 518.855 313.562 521.576 313.562C524.167 313.562 527.795 313.692 532.201 314.081C536.606 314.469 540.493 314.988 543.473 315.506C546.583 316.154 549.952 317.19 553.58 318.486C557.208 319.911 560.188 321.596 562.391 323.669C564.593 325.742 566.537 328.204 567.962 331.314C569.517 334.423 570.295 338.051 570.295 342.068C570.295 345.437 569.776 348.676 568.61 351.397C567.574 354.248 565.889 356.58 563.686 358.524C561.484 360.467 559.281 362.022 556.819 363.447C554.487 364.873 551.507 366.039 547.879 366.816C544.251 367.594 541.141 368.371 538.42 368.889C535.699 369.408 532.33 369.796 528.313 369.926C524.297 370.056 521.187 370.185 519.114 370.315C517.041 370.444 514.19 370.315 510.562 370.315C506.934 370.315 504.861 370.185 504.213 370.185L504.343 313.822ZM581.567 438.858C580.401 441.709 578.976 444.17 577.032 446.244C575.089 448.317 572.756 450.131 569.776 451.815C566.796 453.37 563.816 454.666 561.095 455.702C558.244 456.739 554.876 457.516 550.859 458.294C546.842 459.071 543.344 459.589 540.364 459.849C537.383 460.108 533.755 460.367 529.609 460.626C525.463 460.756 522.224 460.885 519.891 460.885C517.559 460.885 514.579 460.885 511.08 460.756C507.582 460.756 505.25 460.626 504.213 460.626V398.432C505.12 398.432 508.1 398.432 512.894 398.302C517.689 398.173 521.705 398.173 524.815 398.173C527.925 398.173 532.071 398.302 537.513 398.691C542.955 399.08 547.49 399.598 551.118 400.375C554.746 401.153 558.763 402.189 563.168 403.744C567.444 405.299 571.072 407.113 573.793 409.316C576.514 411.518 578.717 414.369 580.66 417.738C582.474 421.107 583.381 425.123 583.381 429.529C583.252 433.027 582.733 436.137 581.567 438.858Z" stroke="#D8A601" stroke-opacity="0.2" stroke-width="8"/>
</svg>
