<svg width="206" height="208" viewBox="0 0 206 208" fill="none" xmlns="http://www.w3.org/2000/svg">
<path d="M43.2694 100.181C48.7695 98.2445 54.8406 98.805 59.8932 101.715L168.903 164.508C172.022 166.305 172.278 170.71 169.387 172.856L150.663 186.751C144.32 191.458 135.801 191.991 128.921 188.111L9.5987 120.825C5.85678 118.715 6.34227 113.18 10.3944 111.753L43.2694 100.181Z" fill="#181B39" fill-opacity="0.15"/>
<mask id="mask0_221_1164" style="mask-type:luminance" maskUnits="userSpaceOnUse" x="30" y="0" width="176" height="160">
<path d="M205.997 119.162C205.997 103.217 194.803 83.8307 180.995 75.8576C177.634 73.9177 174.431 72.839 171.504 72.5377C170.081 58.1989 160.116 41.9688 148.024 34.987C146.36 34.0268 144.735 33.2901 143.166 32.7614C139.502 21.035 131.185 9.52041 121.508 3.93222C114.689 -0.0057517 108.547 -0.215719 104.23 2.62211V2.61438L86.6625 12.2241C82.0753 11.0948 77.9507 11.4875 74.5706 13.2115L74.5822 13.1824L74.2149 13.3826L74.176 13.404L30.8194 36.8646L41.8889 36.6158L55.3549 41.7025L56.3385 32.9753L61.7128 26.905L66.2806 24.9496L67.9561 24.7669L74.8815 27.1635C75.0429 26.2169 76.524 26.6737 77.0877 26.6737C80.5553 28.7555 82.6369 32.223 85.4106 34.3047C93.7336 39.8521 93.7336 52.5543 100.669 57.4097C111.767 65.7327 122.17 77.3057 127.72 89.7902C128.071 90.4957 127.708 91.0205 127.173 91.4578L128.297 97.7089L138.066 100.368L147.314 107.824L155.752 118.516L158.642 125.047L161.915 134.006L162.687 143.023L161.915 149.902L155.775 159.838L198.096 135.637L198.113 135.627L197.734 135.812C202.802 133.454 205.997 127.665 205.997 119.162Z" fill="white"/>
</mask>
<g mask="url(#mask0_221_1164)">
<path d="M205.997 119.162C205.997 103.217 194.803 83.8307 180.995 75.8576C177.634 73.9177 174.431 72.839 171.504 72.5377C170.081 58.1989 160.116 41.9688 148.024 34.987C146.36 34.0268 144.735 33.2901 143.166 32.7614C139.502 21.035 131.185 9.52041 121.508 3.93222C114.689 -0.0057517 108.547 -0.215719 104.23 2.62211V2.61438L86.6625 12.2241C82.0753 11.0948 77.9507 11.4875 74.5706 13.2115L74.5822 13.1824L74.2149 13.3826L74.176 13.404L30.8194 36.8646L41.8889 36.6158L55.3549 41.7025L56.3385 32.9753L61.7128 26.905L66.2806 24.9496L67.9561 24.7669L74.8815 27.1635C75.0429 26.2169 76.524 26.6737 77.0877 26.6737C80.5553 28.7555 82.6369 32.223 85.4106 34.3047C93.7336 39.8521 93.7336 52.5543 100.669 57.4097C111.767 65.7327 122.17 77.3057 127.72 89.7902C128.071 90.4957 127.708 91.0205 127.173 91.4578L128.297 97.7089L138.066 100.368L147.314 107.824L155.752 118.516L158.642 125.047L161.915 134.006L162.687 143.023L161.915 149.902L155.775 159.838L198.096 135.637L198.113 135.627L197.734 135.812C202.802 133.454 205.997 127.665 205.997 119.162Z" fill="#F0E0C4"/>
</g>
<path d="M79.7432 11.7038C77.8791 11.9118 76.1434 12.4113 74.5748 13.2121L74.5864 13.1829L74.2191 13.3832L74.1802 13.4046L30.8236 36.8652L33.2514 36.8108C34.1882 36.0877 35.127 35.1878 36.0659 35.25L78.6333 12.2169L78.6721 12.1955L79.0395 11.9954L79.0278 12.0245C79.2591 11.9059 79.5041 11.8107 79.7432 11.7038Z" fill="#212121"/>
<path d="M206.001 119.162C206.001 103.217 194.807 83.8307 180.999 75.8576C180.324 75.4688 179.66 75.1248 179.001 74.8041C192.999 82.9483 204.331 102.611 204.331 118.789C204.331 127.438 201.083 133.327 195.927 135.724L196.314 135.536L196.296 135.545L156.852 158.102L155.779 159.838L198.1 135.637L198.117 135.627L197.738 135.812C202.806 133.454 206.001 127.665 206.001 119.162Z" fill="#212121"/>
<mask id="mask1_221_1164" style="mask-type:luminance" maskUnits="userSpaceOnUse" x="21" y="24" width="143" height="138">
<path d="M138.459 99.6866C135.075 97.7332 131.85 96.6466 128.903 96.3434C127.473 81.9074 117.439 65.5685 105.266 58.54C103.59 57.574 101.956 56.8315 100.377 56.3009C96.6882 44.4947 88.3166 32.9023 78.5728 27.2772C65.4352 19.6928 54.7816 25.8233 54.7544 40.9707C53.7515 40.2729 52.7329 39.6237 51.7027 39.0289C35.2744 29.5455 21.9581 37.233 21.9581 56.2017C21.9581 75.1705 35.2744 98.2366 51.7027 107.72L138.459 157.81C152.358 165.833 163.628 159.328 163.628 143.278C163.628 127.229 152.358 107.71 138.459 99.6866Z" fill="white"/>
</mask>
<g mask="url(#mask1_221_1164)">
<path d="M138.459 99.6866C135.075 97.7332 131.85 96.6466 128.903 96.3434C127.473 81.9074 117.439 65.5685 105.266 58.54C103.59 57.574 101.956 56.8315 100.377 56.3008C96.6882 44.4947 88.3166 32.9023 78.5728 27.2772C65.4352 19.6928 54.7816 25.8233 54.7544 40.9707C53.7515 40.2729 52.7329 39.6237 51.7027 39.0289C35.2744 29.5455 21.9581 37.233 21.9581 56.2017C21.9581 75.1705 35.2744 98.2366 51.7027 107.72L138.459 157.81C152.358 165.833 163.628 159.328 163.628 143.278C163.628 127.229 152.358 107.71 138.459 99.6866Z" fill="#FFFBF4"/>
</g>
<path d="M138.465 99.6859C137.687 99.2388 136.921 98.8481 136.163 98.4885C150.037 106.539 161.851 127.252 161.851 143.28C161.851 154.19 156.638 160.672 148.939 161.197C157.602 161.607 163.634 155.008 163.634 143.28C163.634 127.228 152.364 107.711 138.465 99.6859Z" fill="#212121"/>
<path d="M23.1149 56.7563C23.1149 41.504 31.6304 33.4939 43.4618 35.634C31.0492 32.5998 21.9623 40.5399 21.9623 56.2005C21.9623 73.1808 32.645 93.4129 46.665 104.278C33.1931 93.0358 23.1149 73.3557 23.1149 56.7563Z" fill="#212121"/>
<path d="M70.5674 83.7103C70.5674 87.8407 67.6673 89.5162 64.0909 87.45C60.5144 85.3858 57.6144 80.3632 57.6144 76.2328C57.6144 72.1024 60.5144 70.4289 64.0909 72.4931C67.6673 74.5593 70.5674 79.5799 70.5674 83.7103Z" fill="#EEC12D"/>
<path d="M67.2934 85.8466C63.7169 83.7805 60.8169 78.7598 60.8169 74.6294C60.8169 73.3816 61.1066 72.3922 61.5731 71.6283C59.2445 71.4164 57.6098 73.1308 57.6098 76.233C57.6098 80.3634 60.5098 85.386 64.0862 87.4502C66.5839 88.8924 68.7259 88.4784 69.8066 86.7116C69.033 86.6416 68.1855 86.3617 67.2934 85.8466Z" fill="#212121"/>
<path d="M90.459 95.1955C90.459 99.3259 87.559 100.999 83.9825 98.9353C80.4061 96.8691 77.506 91.8465 77.506 87.7161C77.506 83.5877 80.4061 81.9122 83.9825 83.9783C87.559 86.0426 90.459 91.0651 90.459 95.1955Z" fill="#EEC12D"/>
<path d="M110.351 106.682C110.351 110.812 107.453 112.486 103.874 110.422C100.298 108.355 97.3977 103.333 97.3977 99.2024C97.3977 95.072 100.298 93.3985 103.874 95.4647C107.453 97.5289 110.351 102.551 110.351 106.682Z" fill="#EEC12D"/>
<path d="M87.188 97.3362C83.6116 95.272 80.7115 90.2495 80.7115 86.119C80.7115 84.8731 81.0012 83.8818 81.4696 83.118C79.141 82.9061 77.5043 84.6224 77.5043 87.7226C77.5043 91.853 80.4044 96.8756 83.9809 98.9418C86.4785 100.382 88.6205 99.97 89.7012 98.2031C88.9276 98.1332 88.0802 97.8513 87.188 97.3362Z" fill="#212121"/>
<path d="M107.084 108.826C103.506 106.762 100.608 101.739 100.608 97.6088C100.608 96.3609 100.896 95.3715 101.364 94.6077C99.0355 94.3958 97.3989 96.1102 97.3989 99.2124C97.3989 103.343 100.299 108.365 103.875 110.43C106.373 111.872 108.515 111.458 109.596 109.693C108.824 109.621 107.975 109.341 107.084 108.826Z" fill="#212121"/>
</svg>
