<svg width="330" height="119" viewBox="0 0 330 119" fill="none" xmlns="http://www.w3.org/2000/svg">
<path d="M0 108.375C16.194 97.2596 28.8815 88.1603 38.0624 81.0769C47.2432 73.8846 54.9577 66.4199 61.2058 58.6827C67.5814 50.8365 70.7692 43.1539 70.7692 35.6346C70.7692 28.5513 68.729 22.9936 64.6487 18.9615C60.6958 14.8205 54.2564 12.75 45.3306 12.75C36.6597 12.75 29.9016 15.093 25.0561 19.7789C20.3382 24.3558 17.7879 30.5128 17.4054 38.25H0.573804C1.08385 26.0449 5.41927 16.6186 13.58 9.97116C21.7408 3.32372 32.2606 0 45.1393 0C58.273 0 68.6653 3.10577 76.316 9.31731C84.0943 15.5289 87.9834 24.0833 87.9834 34.9808C87.9834 44.0256 84.7956 52.8526 78.42 61.4615C72.1719 69.9615 65.0312 77.4808 56.9979 84.0192C48.9647 90.4487 38.6999 97.968 26.2037 106.577H92V119H0V108.375Z" fill="#212121"/>
<path d="M92 13.6611V0H128V119H110.383V13.6611H92Z" fill="#212121"/>
<path d="M128 92.2416V80.7737L193.812 0H214.25V79.1117H233V92.2416H214.25V119H197.375V92.2416H128ZM198.125 15.7891L147.687 79.1117H198.125V15.7891Z" fill="#EEC12D"/>
<path d="M233 59.1758C233 40.5854 236.6 26.1022 243.799 15.7262C250.999 5.24205 263.598 0 281.596 0C299.467 0 312.001 5.24205 319.201 15.7262C326.4 26.1022 330 40.5854 330 59.1758C330 78.0904 326.4 92.7897 319.201 103.274C312.001 113.758 299.467 119 281.596 119C263.598 119 250.999 113.758 243.799 103.274C236.6 92.7897 233 78.0904 233 59.1758ZM312.644 59.1758C312.644 49.7725 311.873 41.8283 310.33 35.3433C308.916 28.7502 305.895 23.4541 301.266 19.455C296.767 15.4559 290.21 13.4564 281.596 13.4564C272.854 13.4564 266.169 15.4559 261.541 19.455C257.041 23.4541 254.02 28.7502 252.477 35.3433C251.063 41.8283 250.356 49.7725 250.356 59.1758C250.356 68.9033 251.063 77.0636 252.477 83.6567C254.02 90.2498 257.041 95.5459 261.541 99.545C266.169 103.544 272.854 105.544 281.596 105.544C290.21 105.544 296.767 103.544 301.266 99.545C305.895 95.5459 308.916 90.2498 310.33 83.6567C311.873 77.0636 312.644 68.9033 312.644 59.1758Z" fill="#EEC12D"/>
</svg>
