<svg width="182" height="136" viewBox="0 0 182 136" fill="none" xmlns="http://www.w3.org/2000/svg">
<mask id="mask0_233_3276" style="mask-type:luminance" maskUnits="userSpaceOnUse" x="15" y="74" width="153" height="48">
<path d="M78.2503 121.947C90.6894 119.023 103.483 116.746 116.466 115.119L143.853 99.3072C144.126 98.3561 144.837 97.5191 145.92 96.8919L166.89 84.7847C168.405 82.2635 167.668 79.5427 164.54 77.7363L158.703 74.3658L101.072 107.639C98.1635 109.319 94.4407 110.178 90.9094 110.178C87.9869 110.178 85.1928 109.588 83.1074 108.384L79.7553 106.447L65.581 114.632L78.2503 121.947ZM63.7115 113.553L77.8878 105.37L24.1845 74.3638L19.637 76.9909C14.3196 80.06 13.7433 84.7033 18.3478 87.3609L63.7115 113.553Z" fill="white"/>
</mask>
<g mask="url(#mask0_233_3276)">
<path d="M78.2503 121.947C90.6894 119.023 103.483 116.746 116.466 115.119L143.853 99.3072C144.126 98.3561 144.837 97.5191 145.92 96.8919L166.89 84.7847C168.405 82.2635 167.668 79.5427 164.54 77.7363L158.703 74.3658L101.072 107.639C98.1635 109.319 94.4407 110.178 90.9094 110.178C87.9869 110.178 85.1928 109.588 83.1074 108.384L79.7553 106.447L65.581 114.632L78.2503 121.947ZM63.7115 113.553L77.8878 105.37L24.1845 74.3638L19.637 76.9909C14.3196 80.06 13.7433 84.7033 18.3478 87.3609L63.7115 113.553Z" fill="#24285C" fill-opacity="0.15"/>
</g>
<mask id="mask1_233_3276" style="mask-type:luminance" maskUnits="userSpaceOnUse" x="143" y="84" width="24" height="16">
<path d="M143.852 99.3066L163.25 88.1078C164.955 87.1221 166.173 85.9755 166.89 84.7841L145.92 96.8913C144.836 97.5185 144.125 98.3556 143.852 99.3066Z" fill="white"/>
</mask>
<g mask="url(#mask1_233_3276)">
<path d="M143.852 99.3066L163.25 88.1078C164.955 87.1221 166.173 85.9755 166.89 84.7841L145.92 96.8913C144.836 97.5185 144.125 98.3556 143.852 99.3066Z" fill="#181B39" fill-opacity="0.15"/>
</g>
<mask id="mask2_233_3276" style="mask-type:luminance" maskUnits="userSpaceOnUse" x="63" y="105" width="17" height="10">
<path d="M65.5806 114.632L79.7549 106.447L77.8874 105.37L63.7111 113.552L65.5806 114.632Z" fill="white"/>
</mask>
<g mask="url(#mask2_233_3276)">
<path d="M65.5806 114.632L79.7549 106.447L77.8874 105.37L63.7111 113.552L65.5806 114.632Z" fill="#262D66" fill-opacity="0.15"/>
</g>
<mask id="mask3_233_3276" style="mask-type:luminance" maskUnits="userSpaceOnUse" x="78" y="115" width="39" height="12">
<path d="M90.9094 126.546C94.4408 126.546 98.1635 125.684 101.072 124.006L116.466 115.119C103.483 116.746 90.6895 119.023 78.2503 121.947L83.1075 124.752C85.1949 125.955 87.985 126.546 90.9094 126.546Z" fill="white"/>
</mask>
<g mask="url(#mask3_233_3276)">
<rect width="41.1786" height="14.9074" transform="matrix(-1 0 0 1 117.649 113.086)" fill="#181B39" fill-opacity="0.15"/>
</g>
<mask id="mask4_233_3276" style="mask-type:luminance" maskUnits="userSpaceOnUse" x="0" y="69" width="182" height="67">
<path d="M90.8093 135.126C95.1125 135.126 99.6417 134.085 103.169 132.049L131.517 115.681L135.075 113.626L137.065 112.478L141.061 110.17L148.956 105.613L150.826 104.533L176.415 89.7603C179.95 87.7176 181.979 84.9581 181.979 82.1843C181.979 80.9991 181.61 79.8709 180.909 78.8506C180.565 78.3476 180.137 77.871 179.634 77.427C179.142 76.9912 178.571 76.586 177.934 76.2174L166.155 69.4174C165.829 69.7962 165.45 70.1668 165.016 70.5252L177.17 77.5411C177.551 77.761 177.903 77.9973 178.221 78.2437C178.771 78.6693 179.225 79.1316 179.575 79.6204C180.148 80.4167 180.447 81.2842 180.447 82.1843C180.447 84.396 178.7 86.6729 175.651 88.4365L149.296 103.651L147.427 104.731L139.531 109.289L132.301 113.463L130.825 114.315L102.405 130.723C99.0877 132.635 94.8334 133.619 90.8093 133.619C87.504 133.619 84.3535 132.957 82.0054 131.601L69.1976 124.206L59.0985 118.376L57.2289 117.296L5.71903 87.5567C3.60511 86.3348 2.4402 84.6852 2.4402 82.9134C2.4402 80.7018 4.18959 78.4249 7.23827 76.6613L17.7305 70.6047C17.2519 70.2748 16.8446 69.9204 16.5065 69.5457L6.47457 75.3376C5.40743 75.9546 4.47676 76.6369 3.69677 77.3659C3.3139 77.7244 2.96768 78.093 2.66016 78.4718C1.52174 79.8709 0.910766 81.3901 0.910766 82.9134C0.910766 85.2554 2.34654 87.3755 4.95533 88.8805L55.6995 118.178L57.5691 119.257L67.1102 124.766L81.2417 132.924C83.7975 134.403 87.227 135.126 90.8093 135.126Z" fill="white"/>
</mask>
<g mask="url(#mask4_233_3276)">
<path d="M90.8093 135.126C95.1125 135.126 99.6417 134.085 103.169 132.049L131.517 115.681L135.075 113.626L137.065 112.478L141.061 110.17L148.956 105.613L150.826 104.533L176.415 89.7603C179.95 87.7176 181.979 84.9581 181.979 82.1843C181.979 80.9991 181.61 79.8709 180.909 78.8506C180.565 78.3476 180.137 77.871 179.634 77.427C179.142 76.9912 178.571 76.586 177.934 76.2174L166.155 69.4174C165.829 69.7962 165.45 70.1668 165.016 70.5252L177.17 77.5411C177.551 77.761 177.903 77.9973 178.221 78.2437C178.771 78.6693 179.225 79.1316 179.575 79.6204C180.148 80.4167 180.447 81.2842 180.447 82.1843C180.447 84.396 178.7 86.6729 175.651 88.4365L149.296 103.651L147.427 104.731L139.531 109.289L132.301 113.463L130.825 114.315L102.405 130.723C99.0877 132.635 94.8334 133.619 90.8093 133.619C87.504 133.619 84.3535 132.957 82.0054 131.601L69.1976 124.206L59.0985 118.376L57.2289 117.296L5.71903 87.5567C3.60511 86.3348 2.4402 84.6852 2.4402 82.9134C2.4402 80.7018 4.18959 78.4249 7.23827 76.6613L17.7305 70.6047C17.2519 70.2748 16.8446 69.9204 16.5065 69.5457L6.47457 75.3376C5.40743 75.9546 4.47676 76.6369 3.69677 77.3659C3.3139 77.7244 2.96768 78.093 2.66016 78.4718C1.52174 79.8709 0.910766 81.3901 0.910766 82.9134C0.910766 85.2554 2.34654 87.3755 4.95533 88.8805L55.6995 118.178L57.5691 119.257L67.1102 124.766L81.2417 132.924C83.7975 134.403 87.227 135.126 90.8093 135.126Z" fill="#F0E0C4"/>
</g>
<mask id="mask5_233_3276" style="mask-type:luminance" maskUnits="userSpaceOnUse" x="17" y="44" width="151" height="67">
<path d="M90.9089 110.178C87.9865 110.178 85.1944 109.587 83.107 108.384L18.712 71.2026L24.1841 74.3633L77.8874 105.369L79.7549 106.447L83.107 108.384C85.1924 109.587 87.9865 110.178 90.9089 110.178ZM90.9089 108.691C94.4403 108.691 98.1651 107.832 101.071 106.152L163.25 70.2536C166.012 68.659 167.482 66.6408 167.625 64.6939H167.649V66.1806V55.7026V53.5439V44.6198V46.1065H167.271C166.845 47.1227 166.059 48.1226 164.925 49.0411C164.432 49.4382 163.874 49.8191 163.25 50.1796L101.071 86.0774C100.674 86.3076 100.263 86.5214 99.8371 86.7189C97.1509 87.9755 93.9576 88.617 90.9089 88.617C87.9845 88.617 85.1944 88.0264 83.107 86.8228L18.3474 49.4322C17.9544 49.2061 17.598 48.9638 17.2783 48.7092V67.6672H17.2885C17.2599 68.0684 17.2884 68.4676 17.376 68.8586C17.6693 69.0867 17.9931 69.3025 18.3474 69.5082L83.107 106.897C85.1944 108.1 87.9845 108.691 90.9089 108.691Z" fill="white"/>
</mask>
<g mask="url(#mask5_233_3276)">
<path d="M90.9089 110.178C87.9865 110.178 85.1944 109.587 83.107 108.384L18.712 71.2026L24.1841 74.3633L77.8874 105.369L79.7549 106.447L83.107 108.384C85.1924 109.587 87.9865 110.178 90.9089 110.178ZM90.9089 108.691C94.4403 108.691 98.1651 107.832 101.071 106.152L163.25 70.2536C166.012 68.659 167.482 66.6408 167.625 64.6939H167.649V66.1806V55.7026V53.5439V44.6198V46.1065H167.271C166.845 47.1227 166.059 48.1226 164.925 49.0411C164.432 49.4382 163.874 49.8191 163.25 50.1796L101.071 86.0774C100.674 86.3076 100.263 86.5214 99.8371 86.7189C97.1509 87.9755 93.9576 88.617 90.9089 88.617C87.9845 88.617 85.1944 88.0264 83.107 86.8228L18.3474 49.4322C17.9544 49.2061 17.598 48.9638 17.2783 48.7092V67.6672H17.2885C17.2599 68.0684 17.2884 68.4676 17.376 68.8586C17.6693 69.0867 17.9931 69.3025 18.3474 69.5082L83.107 106.897C85.1944 108.1 87.9845 108.691 90.9089 108.691Z" fill="#FFFBF4"/>
</g>
<mask id="mask6_233_3276" style="mask-type:luminance" maskUnits="userSpaceOnUse" x="15" y="64" width="153" height="47">
<path d="M90.9089 110.178C94.4403 110.178 98.163 109.318 101.071 107.638L158.703 74.3654L163.25 71.7402C163.914 71.3574 164.503 70.9501 165.016 70.5244C165.45 70.166 165.829 69.7954 166.155 69.4166C167.055 68.3718 167.546 67.264 167.625 66.1806H167.649V64.6939H167.625C167.482 66.6408 166.012 68.659 163.25 70.2536L101.071 106.152C98.1651 107.832 94.4403 108.691 90.9089 108.691C87.9845 108.691 85.1944 108.1 83.107 106.897L18.3474 69.5082C17.9931 69.3025 17.6693 69.0867 17.376 68.8586C17.5593 69.6874 18.0053 70.4837 18.712 71.2026L83.107 108.384C85.1944 109.587 87.9865 110.178 90.9089 110.178ZM15.2519 65.1053V64.9037C15.2499 64.9709 15.2499 65.0381 15.2519 65.1053Z" fill="white"/>
</mask>
<g mask="url(#mask6_233_3276)">
<path d="M90.9089 110.178C94.4403 110.178 98.163 109.318 101.071 107.638L158.703 74.3654L163.25 71.7402C163.914 71.3574 164.503 70.9501 165.016 70.5244C165.45 70.166 165.829 69.7954 166.155 69.4166C167.055 68.3718 167.546 67.264 167.625 66.1806H167.649V64.6939H167.625C167.482 66.6408 166.012 68.659 163.25 70.2536L101.071 106.152C98.1651 107.832 94.4403 108.691 90.9089 108.691C87.9845 108.691 85.1944 108.1 83.107 106.897L18.3474 69.5082C17.9931 69.3025 17.6693 69.0867 17.376 68.8586C17.5593 69.6874 18.0053 70.4837 18.712 71.2026L83.107 108.384C85.1944 109.587 87.9865 110.178 90.9089 110.178ZM15.2519 65.1053V64.9037C15.2499 64.9709 15.2499 65.0381 15.2519 65.1053Z" fill="#212121"/>
</g>
<path d="M17.2884 67.6676H17.2783V46.1069H49.38L83.8422 26.21C89.1596 23.141 97.2018 22.807 101.806 25.4646L137.558 46.1069H167.649V44.6202H135.531L99.7801 23.978C95.1755 21.3203 87.1332 21.6543 81.8158 24.7234L47.3537 44.6202H15.2519V66.181H15.2621C15.1318 67.9792 16.1337 69.7164 18.3474 70.9933L18.712 71.2051C17.6733 70.144 17.1968 68.9241 17.2884 67.6676Z" fill="#212121"/>
<path d="M165.825 46.3491V67.8019H165.8C165.721 68.9057 165.197 70.0299 164.269 71.0889C166.372 69.6144 167.503 67.8712 167.625 66.1809H167.649V44.8401C166.988 45.2718 166.368 45.7606 165.825 46.3491Z" fill="#212121"/>
<mask id="mask7_233_3276" style="mask-type:luminance" maskUnits="userSpaceOnUse" x="15" y="22" width="153" height="67">
<path d="M90.9089 88.6172C93.9576 88.6172 97.1509 87.9757 99.8371 86.7191C97.1509 87.9736 93.9637 88.6111 90.9171 88.6111C90.4874 88.6111 90.0618 88.5989 89.6382 88.5744C89.6422 88.5744 89.6463 88.5744 89.6504 88.5724C87.1923 88.4298 84.891 87.8535 83.107 86.823C85.1944 88.0266 87.9845 88.6172 90.9089 88.6172ZM91.1146 88.442C93.7642 88.1162 96.375 87.326 98.5378 86.0776L160.717 50.1798C166.032 47.1087 166.611 42.4654 162.006 39.8077L132.548 22.7986V33.3479L145.865 41.0378C149.292 43.0153 148.862 46.4733 144.903 48.7583L98.6131 75.4857C96.4462 76.734 93.6745 77.3756 91.0454 77.3756C88.8683 77.3756 86.7911 76.9357 85.2372 76.0396L37.0244 48.2023C33.5949 46.2248 34.0246 42.7668 37.9836 40.4818L50.3393 33.3479V23.0125L22.5427 39.0603C17.2253 42.1314 16.6469 46.7747 21.2515 49.4324L86.0131 86.823C87.4428 87.6478 89.2044 88.1854 91.1146 88.442ZM164.925 49.0413C166.059 48.1228 166.845 47.1229 167.271 46.1067C167.478 45.6118 167.601 45.1129 167.637 44.62C167.645 44.5182 167.649 44.4143 167.649 44.3125C167.649 45.9132 166.729 47.5832 164.925 49.0413ZM16.7671 48.2593C15.7427 47.2635 15.2377 46.1148 15.2377 44.9275C15.2377 45.0396 15.2438 45.1516 15.2519 45.2636C15.3395 46.3307 15.8405 47.3571 16.7671 48.2593Z" fill="white"/>
</mask>
<g mask="url(#mask7_233_3276)">
<path d="M90.9089 88.6172C93.9576 88.6172 97.1509 87.9757 99.8371 86.7191C97.1509 87.9736 93.9637 88.6111 90.9171 88.6111C90.4874 88.6111 90.0618 88.5989 89.6382 88.5744C89.6422 88.5744 89.6463 88.5744 89.6504 88.5724C87.1923 88.4298 84.891 87.8535 83.107 86.823C85.1944 88.0266 87.9845 88.6172 90.9089 88.6172ZM91.1146 88.442C93.7642 88.1162 96.375 87.326 98.5378 86.0776L160.717 50.1798C166.032 47.1087 166.611 42.4654 162.006 39.8077L132.548 22.7986V33.3479L145.865 41.0378C149.292 43.0153 148.862 46.4733 144.903 48.7583L98.6131 75.4857C96.4462 76.734 93.6745 77.3756 91.0454 77.3756C88.8683 77.3756 86.7911 76.9357 85.2372 76.0396L37.0244 48.2023C33.5949 46.2248 34.0246 42.7668 37.9836 40.4818L50.3393 33.3479V23.0125L22.5427 39.0603C17.2253 42.1314 16.6469 46.7747 21.2515 49.4324L86.0131 86.823C87.4428 87.6478 89.2044 88.1854 91.1146 88.442ZM164.925 49.0413C166.059 48.1228 166.845 47.1229 167.271 46.1067C167.478 45.6118 167.601 45.1129 167.637 44.62C167.645 44.5182 167.649 44.4143 167.649 44.3125C167.649 45.9132 166.729 47.5832 164.925 49.0413ZM16.7671 48.2593C15.7427 47.2635 15.2377 46.1148 15.2377 44.9275C15.2377 45.0396 15.2438 45.1516 15.2519 45.2636C15.3395 46.3307 15.8405 47.3571 16.7671 48.2593Z" fill="#FFFBF4"/>
</g>
<path d="M164.54 39.8076L99.7808 2.41689C97.3961 1.0402 94.0887 0.474023 90.7142 0.665457C93.1682 0.814124 95.4654 1.38844 97.2474 2.41689L162.007 39.8076C166.612 42.4652 166.033 47.1085 160.718 50.1796L98.5385 86.0775C95.9746 87.558 92.7793 88.3951 89.6389 88.5743C93.5287 88.8085 97.8115 87.9592 101.072 86.0775L163.251 50.1796C168.569 47.1085 169.145 42.4652 164.54 39.8076Z" fill="#212121"/>
<mask id="mask8_233_3276" style="mask-type:luminance" maskUnits="userSpaceOnUse" x="34" y="33" width="115" height="45">
<path d="M91.0466 77.376C93.6758 77.376 96.4474 76.7345 98.6143 75.4861L144.905 48.7587C148.864 46.4737 149.293 43.0157 145.866 41.0382L132.549 33.3483V44.4392C132.549 44.4494 132.549 44.4596 132.549 44.4697V44.6184L132.543 44.6204C132.512 45.0277 132.374 45.4412 132.127 45.8444C131.757 46.4554 131.138 47.0439 130.282 47.5571C130.28 47.5571 130.28 47.5571 130.28 47.5591C130.27 47.5652 130.26 47.5693 130.25 47.5754C130.248 47.5775 130.246 47.5775 130.246 47.5795C130.236 47.5836 130.225 47.5897 130.215 47.5958C130.213 47.5979 130.213 47.5979 130.211 47.5979C130.199 47.606 130.189 47.6121 130.176 47.6182L96.6389 66.9815C95.0728 67.8857 93.0689 68.3501 91.1688 68.3521C91.1647 68.3521 91.1607 68.3521 91.1566 68.3521C91.1545 68.3521 91.1525 68.3521 91.1505 68.3521C89.5946 68.3501 88.1079 68.0405 86.9898 67.4072C86.9756 67.399 86.9613 67.3909 86.9491 67.3827L52.0186 47.217C52.0084 47.2109 52.0002 47.2068 51.9921 47.2007C51.9839 47.1966 51.9779 47.1946 51.9718 47.1906C51.9697 47.1885 51.9677 47.1865 51.9656 47.1865C51.9575 47.1804 51.9514 47.1763 51.9432 47.1722C51.9412 47.1722 51.9412 47.1702 51.9391 47.1702C51.931 47.1661 51.9229 47.16 51.9147 47.1559C51.4076 46.8464 51.0247 46.492 50.7641 46.1092C50.4789 45.6896 50.3385 45.2375 50.3405 44.7732V33.3483L37.9848 40.4822C34.0258 42.7672 33.5961 46.2252 37.0256 48.2027L85.2384 76.04C86.7923 76.9361 88.8695 77.376 91.0466 77.376Z" fill="white"/>
</mask>
<g mask="url(#mask8_233_3276)">
<path d="M91.0466 77.376C93.6758 77.376 96.4474 76.7345 98.6143 75.4861L144.905 48.7587C148.864 46.4737 149.293 43.0157 145.866 41.0382L132.549 33.3483V44.4392C132.549 44.4494 132.549 44.4596 132.549 44.4697V44.6184L132.543 44.6204C132.512 45.0277 132.374 45.4412 132.127 45.8444C131.757 46.4554 131.138 47.0439 130.282 47.5571C130.28 47.5571 130.28 47.5571 130.28 47.5591C130.27 47.5652 130.26 47.5693 130.25 47.5754C130.248 47.5775 130.246 47.5775 130.246 47.5795C130.236 47.5836 130.225 47.5897 130.215 47.5958C130.213 47.5979 130.213 47.5979 130.211 47.5979C130.199 47.606 130.189 47.6121 130.176 47.6182L96.6389 66.9815C95.0728 67.8857 93.0689 68.3501 91.1688 68.3521C91.1647 68.3521 91.1607 68.3521 91.1566 68.3521C91.1545 68.3521 91.1525 68.3521 91.1505 68.3521C89.5946 68.3501 88.1079 68.0405 86.9898 67.4072C86.9756 67.399 86.9613 67.3909 86.9491 67.3827L52.0186 47.217C52.0084 47.2109 52.0002 47.2068 51.9921 47.2007C51.9839 47.1966 51.9779 47.1946 51.9718 47.1906C51.9697 47.1885 51.9677 47.1865 51.9656 47.1865C51.9575 47.1804 51.9514 47.1763 51.9432 47.1722C51.9412 47.1722 51.9412 47.1702 51.9391 47.1702C51.931 47.1661 51.9229 47.16 51.9147 47.1559C51.4076 46.8464 51.0247 46.492 50.7641 46.1092C50.4789 45.6896 50.3385 45.2375 50.3405 44.7732V33.3483L37.9848 40.4822C34.0258 42.7672 33.5961 46.2252 37.0256 48.2027L85.2384 76.04C86.7923 76.9361 88.8695 77.376 91.0466 77.376Z" fill="#FDF5E9"/>
</g>
<path d="M86.9482 67.3826L52.0177 47.2169C49.5331 45.7832 49.8447 43.2782 52.7121 41.6225L86.2497 22.2592C89.1191 20.6035 93.457 20.4223 95.9415 21.856L130.872 42.0237C133.355 43.4575 133.043 45.9624 130.176 47.6181L96.638 66.9814C93.7706 68.6371 89.4308 68.8183 86.9482 67.3826Z" fill="#89D8EB"/>
<path d="M86.0137 86.8227L21.2521 49.4321C16.6475 46.7744 17.2259 42.1311 22.5433 39.06L84.7205 3.16214C87.2458 1.70399 90.3841 0.873091 93.4775 0.675548C89.5287 0.394507 85.14 1.24373 81.8164 3.16214L19.6371 39.06C14.3198 42.1311 13.7434 46.7744 18.348 49.4321L83.1076 86.8227C85.5269 88.2177 88.8954 88.7819 92.3167 88.564C89.9482 88.3949 87.7386 87.8186 86.0137 86.8227Z" fill="#212121"/>
<mask id="mask9_233_3276" style="mask-type:luminance" maskUnits="userSpaceOnUse" x="50" y="20" width="83" height="49">
<path d="M86.9482 67.3826L52.0177 47.2169C49.5331 45.7832 49.8447 43.2782 52.7121 41.6225L86.2497 22.2592C89.1191 20.6035 93.457 20.4223 95.9415 21.856L130.872 42.0237C133.355 43.4575 133.043 45.9624 130.176 47.6181L96.638 66.9814C93.7706 68.6371 89.4308 68.8183 86.9482 67.3826Z" fill="white"/>
</mask>
<g mask="url(#mask9_233_3276)">
<path d="M52.6977 44.3494L86.2474 24.98C89.1169 23.3222 93.4568 23.143 95.9413 24.5788L130.886 44.7526C131.438 45.0703 131.829 45.4471 132.108 45.8503C132.945 44.4818 132.585 43.0032 130.886 42.0237L95.9413 21.8478C93.4568 20.414 89.1169 20.5933 86.2474 22.251L52.6977 41.6204C50.4656 42.9096 49.8038 44.7078 50.7813 46.1191C51.1683 45.4858 51.7894 44.8748 52.6977 44.3494Z" fill="#4B75C3"/>
<path d="M52.6982 47.6403L86.248 28.2708C89.1174 26.6131 93.4573 26.4339 95.9419 27.8676L130.887 48.0435C131.322 48.296 131.644 48.5893 131.909 48.8968C133.019 47.4468 132.717 45.8094 130.887 44.7525L95.9419 24.5786C93.4573 23.1429 89.1174 23.3221 86.248 24.9798L52.6982 44.3492C50.3338 45.7137 49.7371 47.6484 50.9794 49.0923C51.3765 48.573 51.9426 48.0761 52.6982 47.6403Z" fill="#57C6EF"/>
<path d="M51.319 52.7397C51.6856 52.3569 52.1254 51.9862 52.6977 51.6563L86.2475 32.2869C89.117 30.6291 93.4568 30.4499 95.9414 31.8836L130.886 52.0595C131.151 52.2123 131.369 52.3833 131.568 52.5585C133.043 51.0209 132.876 49.1921 130.886 48.0435L95.9414 27.8676C93.4568 26.4339 89.117 26.6131 86.2475 28.2708L52.6977 47.6403C50.1358 49.1208 49.6287 51.2734 51.319 52.7397Z" fill="#62CCEF"/>
</g>
<mask id="mask10_233_3276" style="mask-type:luminance" maskUnits="userSpaceOnUse" x="50" y="0" width="83" height="34">
<path d="M132.548 33.3477V22.7984L97.2467 2.41684C95.8109 1.59001 94.0432 1.05645 92.1289 0.801883C89.4855 1.12773 86.8787 1.91583 84.72 3.16219L50.3393 23.0123V33.3477L84.276 13.7542C86.4408 12.5037 89.2125 11.8643 91.8417 11.8643C94.0187 11.8643 96.096 12.3042 97.6499 13.2002L132.548 33.3477ZM81.8159 3.16219C84.724 1.48205 88.4468 0.622643 91.9782 0.622643C92.4812 0.622643 92.9822 0.640974 93.477 0.675595C93.4628 0.675595 93.4485 0.677633 93.4343 0.677633C95.8191 0.842592 98.043 1.41486 99.7801 2.41684C97.6927 1.21325 94.9026 0.622643 91.9782 0.622643C88.4468 0.622643 84.724 1.48409 81.8159 3.16219Z" fill="white"/>
</mask>
<g mask="url(#mask10_233_3276)">
<rect width="85.1676" height="36.4946" transform="matrix(-1 0 0 1 134.348 -1.36719)" fill="#FFFBF4"/>
</g>
<mask id="mask11_233_3276" style="mask-type:luminance" maskUnits="userSpaceOnUse" x="92" y="0" width="41" height="23">
<path d="M132.548 22.7988V21.3366L129.353 19.4915L127.483 18.4121L104.819 5.32744L102.947 4.24604L99.7801 2.41724C98.043 1.41527 95.8191 0.842993 93.4343 0.678034C93.0005 0.706545 92.5647 0.747298 92.1289 0.802284C94.0432 1.05685 95.8109 1.59041 97.2467 2.41724L132.548 22.7988Z" fill="white"/>
</mask>
<g mask="url(#mask11_233_3276)">
<path d="M132.548 22.7988V21.3366L129.353 19.4915L127.483 18.4121L104.819 5.32744L102.947 4.24604L99.7801 2.41724C98.043 1.41527 95.8191 0.842993 93.4343 0.678034C93.0005 0.706545 92.5647 0.747298 92.1289 0.802284C94.0432 1.05685 95.8109 1.59041 97.2467 2.41724L132.548 22.7988Z" fill="#212121"/>
</g>
<mask id="mask12_233_3276" style="mask-type:luminance" maskUnits="userSpaceOnUse" x="50" y="11" width="83" height="58">
<path d="M96.6377 66.981L130.175 47.6177L130.163 47.6258L126.685 49.6338L96.6377 66.981ZM86.948 67.3822L56.2025 49.6338L52.7241 47.6238L52.0174 47.2165L86.948 67.3822ZM50.3393 44.7726C50.3475 43.677 51.1498 42.5243 52.7119 41.6221L86.2494 22.2588C87.8196 21.3525 89.8276 20.8882 91.7318 20.8882C93.3101 20.8882 94.8151 21.2059 95.9413 21.8556L130.872 42.0233C131.99 42.6709 132.542 43.5344 132.548 44.4387V33.3477L97.6499 13.2003C96.096 12.3043 94.0187 11.8644 91.8417 11.8644C89.2125 11.8644 86.4408 12.5038 84.276 13.7543L50.3393 33.3477V44.7726ZM132.542 44.6199L132.548 44.6179V44.4692C132.548 44.5181 132.546 44.569 132.542 44.6199Z" fill="white"/>
</mask>
<g mask="url(#mask12_233_3276)">
<rect width="85.1676" height="59.9147" transform="matrix(-1 0 0 1 134.348 10.4448)" fill="#FDF5E9"/>
</g>
<mask id="mask13_233_3276" style="mask-type:luminance" maskUnits="userSpaceOnUse" x="50" y="20" width="83" height="49">
<path d="M91.1554 68.3516C91.1595 68.3516 91.1636 68.3516 91.1676 68.3516C93.0677 68.3495 95.0716 67.8852 96.6377 66.981L126.685 49.6339L95.9413 31.8834C94.8151 31.2338 93.3101 30.9161 91.7318 30.9161C89.8276 30.9161 87.8175 31.3804 86.2474 32.2867L56.2025 49.6339L86.948 67.3822C86.9602 67.3903 86.9744 67.3985 86.9887 67.4066C88.1067 68.04 89.5934 68.3495 91.1493 68.3516C91.1513 68.3516 91.1534 68.3516 91.1554 68.3516ZM50.7649 46.1066C50.7649 46.1045 50.767 46.1025 50.767 46.1005C50.5633 45.799 50.433 45.4814 50.376 45.1555C50.431 45.4834 50.5592 45.8052 50.7649 46.1066ZM132.124 45.8418C132.367 45.4406 132.505 45.0292 132.536 44.624L132.542 44.6199C132.546 44.569 132.548 44.5181 132.548 44.4692V44.4387C132.542 43.5344 131.99 42.6709 130.872 42.0233L95.9413 21.8556C94.8151 21.2059 93.3101 20.8882 91.7318 20.8882C89.8276 20.8882 87.8196 21.3526 86.2494 22.2588L52.7119 41.6221C51.1498 42.5243 50.3475 43.677 50.3393 44.7726V44.7951L50.3414 44.7971C50.3414 44.7116 50.3454 44.626 50.3535 44.5405C50.4635 43.5161 51.2598 42.4591 52.7119 41.6221L86.2494 22.2588C87.8196 21.3526 89.8276 20.8882 91.7318 20.8882C93.3101 20.8882 94.8151 21.2059 95.9413 21.8556L130.872 42.0233C131.743 42.5284 132.271 43.1638 132.464 43.8501C132.637 44.4896 132.515 45.1738 132.118 45.8316C132.12 45.8337 132.122 45.8377 132.124 45.8418Z" fill="white"/>
</mask>
<g mask="url(#mask13_233_3276)">
<path d="M91.1554 68.3516C91.1595 68.3516 91.1636 68.3516 91.1676 68.3516C93.0677 68.3495 95.0716 67.8852 96.6377 66.981L126.685 49.6339L95.9413 31.8834C94.8151 31.2338 93.3101 30.9161 91.7318 30.9161C89.8276 30.9161 87.8175 31.3804 86.2474 32.2867L56.2025 49.6339L86.948 67.3822C86.9602 67.3903 86.9744 67.3985 86.9887 67.4066C88.1067 68.04 89.5934 68.3495 91.1493 68.3516C91.1513 68.3516 91.1534 68.3516 91.1554 68.3516ZM50.7649 46.1066C50.7649 46.1045 50.767 46.1025 50.767 46.1005C50.5633 45.799 50.433 45.4814 50.376 45.1555C50.431 45.4834 50.5592 45.8052 50.7649 46.1066ZM132.124 45.8418C132.367 45.4406 132.505 45.0292 132.536 44.624L132.542 44.6199C132.546 44.569 132.548 44.5181 132.548 44.4692V44.4387C132.542 43.5344 131.99 42.6709 130.872 42.0233L95.9413 21.8556C94.8151 21.2059 93.3101 20.8882 91.7318 20.8882C89.8276 20.8882 87.8196 21.3526 86.2494 22.2588L52.7119 41.6221C51.1498 42.5243 50.3475 43.677 50.3393 44.7726V44.7951L50.3414 44.7971C50.3414 44.7116 50.3454 44.626 50.3535 44.5405C50.4635 43.5161 51.2598 42.4591 52.7119 41.6221L86.2494 22.2588C87.8196 21.3526 89.8276 20.8882 91.7318 20.8882C93.3101 20.8882 94.8151 21.2059 95.9413 21.8556L130.872 42.0233C131.743 42.5284 132.271 43.1638 132.464 43.8501C132.637 44.4896 132.515 45.1738 132.118 45.8316C132.12 45.8337 132.122 45.8377 132.124 45.8418Z" fill="url(#paint0_linear_233_3276)"/>
</g>
<mask id="mask14_233_3276" style="mask-type:luminance" maskUnits="userSpaceOnUse" x="50" y="0" width="44" height="24">
<path d="M50.3389 23.0127L84.7195 3.16261C86.8782 1.91626 89.485 1.12815 92.1284 0.802306C92.5642 0.74732 93 0.706567 93.4338 0.678056C93.4481 0.678056 93.4623 0.676017 93.4766 0.676017C92.9817 0.641396 92.4807 0.623066 91.9777 0.623066C88.4464 0.623066 84.7236 1.48247 81.8154 3.16261L50.3389 21.3346V23.0127Z" fill="white"/>
</mask>
<g mask="url(#mask14_233_3276)">
<path d="M50.3389 23.0127L84.7195 3.16261C86.8782 1.91626 89.485 1.12815 92.1284 0.802306C92.5642 0.74732 93 0.706567 93.4338 0.678056C93.4481 0.678056 93.4623 0.676017 93.4766 0.676017C92.9817 0.641396 92.4807 0.623066 91.9777 0.623066C88.4464 0.623066 84.7236 1.48247 81.8154 3.16261L50.3389 21.3346V23.0127Z" fill="#212121"/>
</g>
<mask id="mask15_233_3276" style="mask-type:luminance" maskUnits="userSpaceOnUse" x="50" y="20" width="83" height="27">
<path d="M50.768 46.1006C51.1488 45.4794 51.7863 44.8807 52.6762 44.3634C52.6844 44.3593 52.6905 44.3532 52.6986 44.3492L86.2484 24.9798C86.2871 24.9574 86.3237 24.937 86.3604 24.9166C87.9081 24.0531 89.8612 23.6112 91.7185 23.6092C91.7226 23.6092 91.7287 23.6092 91.7328 23.6092C91.7348 23.6092 91.7368 23.6092 91.7409 23.6092C93.2723 23.6092 94.7366 23.9106 95.8486 24.5256C95.8812 24.5419 95.9117 24.5602 95.9423 24.5786L130.887 44.7524C131.433 45.0681 131.842 45.4346 132.119 45.8318C132.516 45.174 132.638 44.4897 132.465 43.8502C132.272 43.1639 131.744 42.5285 130.873 42.0235L95.9423 21.8557C94.8161 21.2061 93.3111 20.8884 91.7328 20.8884C89.8286 20.8884 87.8206 21.3527 86.2504 22.2589L52.7129 41.6223C51.2608 42.4593 50.4645 43.5162 50.3546 44.5406C50.3464 44.6262 50.3424 44.7117 50.3424 44.7972L50.3465 44.7993C50.3465 44.9194 50.3566 45.0375 50.377 45.1557C50.434 45.4815 50.5643 45.7992 50.768 46.1006Z" fill="white"/>
</mask>
<g mask="url(#mask15_233_3276)">
<path d="M50.768 46.1006C51.1488 45.4794 51.7863 44.8807 52.6762 44.3634C52.6844 44.3593 52.6905 44.3532 52.6986 44.3492L86.2484 24.9798C86.2871 24.9574 86.3237 24.937 86.3604 24.9166C87.9081 24.0531 89.8612 23.6112 91.7185 23.6092C91.7226 23.6092 91.7287 23.6092 91.7328 23.6092C91.7348 23.6092 91.7368 23.6092 91.7409 23.6092C93.2723 23.6092 94.7366 23.9106 95.8486 24.5256C95.8812 24.5419 95.9117 24.5602 95.9423 24.5786L130.887 44.7524C131.433 45.0681 131.842 45.4346 132.119 45.8318C132.516 45.174 132.638 44.4897 132.465 43.8502C132.272 43.1639 131.744 42.5285 130.873 42.0235L95.9423 21.8557C94.8161 21.2061 93.3111 20.8884 91.7328 20.8884C89.8286 20.8884 87.8206 21.3527 86.2504 22.2589L52.7129 41.6223C51.2608 42.4593 50.4645 43.5162 50.3546 44.5406C50.3464 44.6262 50.3424 44.7117 50.3424 44.7972L50.3465 44.7993C50.3465 44.9194 50.3566 45.0375 50.377 45.1557C50.434 45.4815 50.5643 45.7992 50.768 46.1006Z" fill="#F0E0C4"/>
</g>
<mask id="mask16_233_3276" style="mask-type:luminance" maskUnits="userSpaceOnUse" x="50" y="23" width="83" height="25">
<path d="M130.164 47.626L130.176 47.6178C130.188 47.6117 130.198 47.6056 130.211 47.5975C130.213 47.5975 130.213 47.5975 130.215 47.5954C130.225 47.5893 130.235 47.5832 130.245 47.5791C130.245 47.5771 130.247 47.5771 130.249 47.5751C130.26 47.569 130.27 47.5649 130.28 47.5588C130.28 47.5567 130.28 47.5567 130.282 47.5567C131.139 47.0435 131.754 46.4529 132.125 45.842C132.123 45.8379 132.121 45.8338 132.119 45.8318C131.842 45.4347 131.433 45.0681 130.887 44.7525L95.942 24.5786C95.9115 24.5603 95.8809 24.5419 95.8483 24.5257C94.7364 23.9106 93.2721 23.6092 91.7406 23.6092C91.7366 23.6092 91.7346 23.6092 91.7325 23.6092C91.7285 23.6092 91.7223 23.6092 91.7183 23.6092C89.8609 23.6112 87.9079 24.0532 86.3601 24.9166C86.3235 24.937 86.2868 24.9574 86.2481 24.9798L52.6984 44.3492C52.6902 44.3533 52.6841 44.3594 52.676 44.3635C51.786 44.8807 51.1486 45.4795 50.7677 46.1006C50.7677 46.1027 50.7657 46.1047 50.7657 46.1067C51.0243 46.4896 51.4072 46.846 51.9143 47.1555C51.9225 47.1596 51.9306 47.1657 51.9387 47.1698C51.9408 47.1698 51.9408 47.1718 51.9428 47.1718C51.951 47.1759 51.9571 47.18 51.9652 47.1861C51.9673 47.1861 51.9693 47.1881 51.9714 47.1902C51.9775 47.1943 51.9835 47.1963 51.9917 47.2003C51.9998 47.2064 52.008 47.2105 52.0182 47.2166L52.7249 47.6239L86.2481 28.2708C86.2868 28.2484 86.3235 28.2281 86.3601 28.2077C87.9079 27.3442 89.8609 26.9023 91.7183 26.9002C91.7223 26.9002 91.7285 26.9002 91.7325 26.9002C91.7346 26.9002 91.7366 26.9002 91.7406 26.9002C93.2293 26.9002 94.6529 27.1853 95.7547 27.7637C95.773 27.7739 95.7913 27.7841 95.8097 27.7943C95.8158 27.7984 95.8239 27.8004 95.83 27.8044C95.832 27.8065 95.8341 27.8065 95.8361 27.8085C95.8585 27.8207 95.8809 27.833 95.9054 27.8472C95.9176 27.8533 95.9298 27.8615 95.942 27.8676L130.164 47.626Z" fill="white"/>
</mask>
<g mask="url(#mask16_233_3276)">
<path d="M130.164 47.626L130.176 47.6178C130.188 47.6117 130.198 47.6056 130.211 47.5975C130.213 47.5975 130.213 47.5975 130.215 47.5954C130.225 47.5893 130.235 47.5832 130.245 47.5791C130.245 47.5771 130.247 47.5771 130.249 47.5751C130.26 47.569 130.27 47.5649 130.28 47.5588C130.28 47.5567 130.28 47.5567 130.282 47.5567C131.139 47.0435 131.754 46.4529 132.125 45.842C132.123 45.8379 132.121 45.8338 132.119 45.8318C131.842 45.4347 131.433 45.0681 130.887 44.7525L95.942 24.5786C95.9115 24.5603 95.8809 24.5419 95.8483 24.5257C94.7364 23.9106 93.2721 23.6092 91.7406 23.6092C91.7366 23.6092 91.7346 23.6092 91.7325 23.6092C91.7285 23.6092 91.7223 23.6092 91.7183 23.6092C89.8609 23.6112 87.9079 24.0532 86.3601 24.9166C86.3235 24.937 86.2868 24.9574 86.2481 24.9798L52.6984 44.3492C52.6902 44.3533 52.6841 44.3594 52.676 44.3635C51.786 44.8807 51.1486 45.4795 50.7677 46.1006C50.7677 46.1027 50.7657 46.1047 50.7657 46.1067C51.0243 46.4896 51.4072 46.846 51.9143 47.1555C51.9225 47.1596 51.9306 47.1657 51.9387 47.1698C51.9408 47.1698 51.9408 47.1718 51.9428 47.1718C51.951 47.1759 51.9571 47.18 51.9652 47.1861C51.9673 47.1861 51.9693 47.1881 51.9714 47.1902C51.9775 47.1943 51.9835 47.1963 51.9917 47.2003C51.9998 47.2064 52.008 47.2105 52.0182 47.2166L52.7249 47.6239L86.2481 28.2708C86.2868 28.2484 86.3235 28.2281 86.3601 28.2077C87.9079 27.3442 89.8609 26.9023 91.7183 26.9002C91.7223 26.9002 91.7285 26.9002 91.7325 26.9002C91.7346 26.9002 91.7366 26.9002 91.7406 26.9002C93.2293 26.9002 94.6529 27.1853 95.7547 27.7637C95.773 27.7739 95.7913 27.7841 95.8097 27.7943C95.8158 27.7984 95.8239 27.8004 95.83 27.8044C95.832 27.8065 95.8341 27.8065 95.8361 27.8085C95.8585 27.8207 95.8809 27.833 95.9054 27.8472C95.9176 27.8533 95.9298 27.8615 95.942 27.8676L130.164 47.626Z" fill="url(#paint1_linear_233_3276)"/>
</g>
<mask id="mask17_233_3276" style="mask-type:luminance" maskUnits="userSpaceOnUse" x="52" y="26" width="79" height="24">
<path d="M126.685 49.6338L130.163 47.6258L95.9413 27.8674C95.929 27.8612 95.9168 27.8531 95.9046 27.847C95.8802 27.8328 95.8578 27.8205 95.8354 27.8083C95.8333 27.8062 95.8313 27.8062 95.8292 27.8042C95.8231 27.8001 95.815 27.7981 95.8089 27.7941C95.7906 27.7839 95.7722 27.7737 95.7539 27.7635C94.6522 27.1851 93.2286 26.9 91.7399 26.9C91.7358 26.9 91.7338 26.9 91.7318 26.9C91.7277 26.9 91.7216 26.9 91.7175 26.9C89.8602 26.902 87.9071 27.344 86.3594 28.2075C86.3227 28.2278 86.2861 28.2482 86.2474 28.2706L52.7241 47.6237L56.2025 49.6338L86.2474 32.2866C87.8175 31.3804 89.8276 30.916 91.7318 30.916C93.3101 30.916 94.8151 31.2337 95.9413 31.8834L126.685 49.6338Z" fill="white"/>
</mask>
<g mask="url(#mask17_233_3276)">
<path d="M126.685 49.6338L130.163 47.6258L95.9413 27.8674C95.929 27.8612 95.9168 27.8531 95.9046 27.847C95.8802 27.8328 95.8578 27.8205 95.8354 27.8083C95.8333 27.8062 95.8313 27.8062 95.8292 27.8042C95.8231 27.8001 95.815 27.7981 95.8089 27.7941C95.7906 27.7839 95.7722 27.7737 95.7539 27.7635C94.6522 27.1851 93.2286 26.9 91.7399 26.9C91.7358 26.9 91.7338 26.9 91.7318 26.9C91.7277 26.9 91.7216 26.9 91.7175 26.9C89.8602 26.902 87.9071 27.344 86.3594 28.2075C86.3227 28.2278 86.2861 28.2482 86.2474 28.2706L52.7241 47.6237L56.2025 49.6338L86.2474 32.2866C87.8175 31.3804 89.8276 30.916 91.7318 30.916C93.3101 30.916 94.8151 31.2337 95.9413 31.8834L126.685 49.6338Z" fill="url(#paint2_linear_233_3276)"/>
</g>
<defs>
<linearGradient id="paint0_linear_233_3276" x1="91.4426" y1="68.3516" x2="91.4426" y2="-13.8053" gradientUnits="userSpaceOnUse">
<stop stop-color="#89D8EB"/>
<stop offset="0.0107527" stop-color="#89D8EB"/>
<stop offset="1" stop-color="#89D8EB"/>
</linearGradient>
<linearGradient id="paint1_linear_233_3276" x1="91.4433" y1="68.3517" x2="91.4433" y2="-13.805" gradientUnits="userSpaceOnUse">
<stop stop-color="#57C5EF"/>
<stop offset="0.0107527" stop-color="#57C5EF"/>
<stop offset="1" stop-color="#57C5EF"/>
</linearGradient>
<linearGradient id="paint2_linear_233_3276" x1="91.4426" y1="68.3515" x2="91.4426" y2="-13.8054" gradientUnits="userSpaceOnUse">
<stop stop-color="#62CCEF"/>
<stop offset="0.0107527" stop-color="#62CCEF"/>
<stop offset="1" stop-color="#62CCEF"/>
</linearGradient>
</defs>
</svg>
