<svg width="356" height="134" viewBox="0 0 356 134" fill="none" xmlns="http://www.w3.org/2000/svg">
<path d="M254.765 66.7797C254.765 46.1397 258.725 29.8797 266.645 17.9997C274.685 6.11969 287.585 0.179688 305.345 0.179688C323.105 0.179688 335.945 6.11969 343.865 17.9997C351.905 29.8797 355.925 46.1397 355.925 66.7797C355.925 87.6597 351.905 104.04 343.865 115.92C335.945 127.8 323.105 133.74 305.345 133.74C287.585 133.74 274.685 127.8 266.645 115.92C258.725 104.04 254.765 87.6597 254.765 66.7797ZM325.685 66.7797C325.685 54.6597 324.365 45.3597 321.725 38.8797C319.085 32.2797 313.625 28.9797 305.345 28.9797C297.065 28.9797 291.605 32.2797 288.965 38.8797C286.325 45.3597 285.005 54.6597 285.005 66.7797C285.005 74.9397 285.485 81.7197 286.445 87.1197C287.405 92.3997 289.325 96.7197 292.205 100.08C295.205 103.32 299.585 104.94 305.345 104.94C311.105 104.94 315.425 103.32 318.305 100.08C321.305 96.7197 323.285 92.3997 324.245 87.1197C325.205 81.7197 325.685 74.9397 325.685 66.7797Z" fill="#212121"/>
<path d="M145 108.2V83.36L201.88 2H236.26V81.56H251.02V108.2H236.26L205.48 131.6V108.2H145ZM207.64 35.84L177.4 81.56H207.64V35.84Z" fill="#212121"/>
<path d="M91 29.62V1H140.86V108L108.82 132.4V29.62H91Z" fill="#FBCC31"/>
<path d="M0.36 109.62C4.44 106.38 6.3 104.88 5.94 105.12C17.7 95.4 26.94 87.42 33.66 81.18C40.5 74.94 46.26 68.4 50.94 61.56C55.62 54.72 57.96 48.06 57.96 41.58C57.96 36.66 56.82 32.82 54.54 30.06C52.26 27.3 48.84 25.92 44.28 25.92C39.72 25.92 36.12 27.66 33.48 31.14C30.96 34.5 29.7 39.3 29.7 45.54H0C0.24 35.34 2.4 26.82 6.48 19.98C10.68 13.14 16.14 8.1 22.86 4.86C29.7 1.62 37.26 0 45.54 0C59.82 0 70.56 3.66 77.76 10.98C85.08 18.3 88.74 27.84 88.74 39.6C88.74 52.44 84.36 64.38 75.6 75.42C66.84 86.34 55.68 97.02 42.12 107.46H90.72V132.48H42.12L0.36 109.62Z" fill="#FBCC31"/>
</svg>
